<?xml version="1.0" encoding="UTF-8" standalone="no"?>
<!-- Created with Inkscape (http://www.inkscape.org/) -->

<svg
   xmlns:dc="http://purl.org/dc/elements/1.1/"
   xmlns:cc="http://creativecommons.org/ns#"
   xmlns:rdf="http://www.w3.org/1999/02/22-rdf-syntax-ns#"
   xmlns:svg="http://www.w3.org/2000/svg"
   xmlns="http://www.w3.org/2000/svg"
   xmlns:sodipodi="http://sodipodi.sourceforge.net/DTD/sodipodi-0.dtd"
   xmlns:inkscape="http://www.inkscape.org/namespaces/inkscape"
   width="2125.9841"
   height="1417.3228"
   id="svg2"
   version="1.1"
   inkscape:version="0.48.3.1 r9886"
   sodipodi:docname="New document 2">
  <defs
     id="defs4" />
  <sodipodi:namedview
     id="base"
     pagecolor="#ffffff"
     bordercolor="#666666"
     borderopacity="1.0"
     inkscape:pageopacity="0.0"
     inkscape:pageshadow="2"
     inkscape:zoom="1.850104"
     inkscape:cx="831.23333"
     inkscape:cy="510.04"
     inkscape:document-units="mm"
     inkscape:current-layer="layer1"
     showgrid="false"
     units="mm"
     inkscape:window-width="1366"
     inkscape:window-height="692"
     inkscape:window-x="0"
     inkscape:window-y="24"
     inkscape:window-maximized="1" />
  <metadata
     id="metadata7">
    <rdf:RDF>
      <cc:Work
         rdf:about="">
        <dc:format>image/svg+xml</dc:format>
        <dc:type
           rdf:resource="http://purl.org/dc/dcmitype/StillImage" />
        <dc:title></dc:title>
      </cc:Work>
    </rdf:RDF>
  </metadata>
  <g
     inkscape:label="Layer 1"
     inkscape:groupmode="layer"
     id="layer1"
     transform="translate(0,364.96061)">
    <path
       style="fill:none;stroke:#000000;stroke-width:0.54051017999999995"
       d="m 507.03534,904.78389 0,-51.97251 26.34987,0.24351 c 29.6214,0.27374 30.65171,0.38574 38.32082,4.16562 5.34379,2.63379 9.0059,6.37798 11.79746,12.06186 5.70685,11.61971 2.67039,22.07698 -8.68046,29.89461 -1.60956,1.10855 -2.92647,2.1985 -2.92647,2.42212 0,0.22363 0.89486,0.95964 1.98858,1.6356 3.70119,2.28747 8.35047,6.51748 10.758,9.78788 3.43705,4.6689 4.74855,9.33254 4.42228,15.72543 -0.54841,10.74573 -6.00177,19.25645 -15.14953,23.64298 -7.99971,3.83601 -8.68086,3.90766 -39.44966,4.14967 l -27.43089,0.21575 0,-51.97252 z m 55.67254,33.74297 c 1.33777,-0.62285 3.22896,-1.95228 4.20265,-2.9543 4.59609,-4.72975 4.40168,-15.1452 -0.37179,-19.91867 -3.72852,-3.72852 -5.24985,-4.00414 -23.42435,-4.24384 l -16.08018,-0.21208 0,14.39463 0,14.39463 16.62069,-0.16396 c 15.54571,-0.15335 16.778,-0.2372 19.05298,-1.29641 z m -3.1675,-44.75174 c 3.22936,-1.1988 6.25655,-4.23626 7.00979,-7.0336 0.32442,-1.2048 0.4987,-3.80375 0.38729,-5.77545 -0.27558,-4.87702 -2.07153,-7.61382 -6.29588,-9.5941 -3.06229,-1.43554 -3.09965,-1.43882 -18.33795,-1.61121 l -15.26942,-0.17274 0,12.79012 0,12.79012 14.99916,-0.23109 c 12.45987,-0.19197 15.42372,-0.3887 17.50701,-1.16205 l 0,0 z"
       id="path3004"
       inkscape:connector-curvature="0"
       transform="translate(0,-364.96061)" />
    <path
       style="fill:none;stroke:#000000;stroke-width:0.54051017999999995"
       d="m 603.24615,904.79641 0,-51.88898 37.02494,0 37.02495,0 0,8.37791 0,8.37791 -27.02551,0 -27.02551,0 0,12.70199 0,12.70198 25.13372,0 25.13373,0 0,8.10766 0,8.10765 -25.13373,0 -25.13372,0 0,14.32352 0,14.32352 28.37679,0 28.37678,0 0,8.3779 0,8.37791 -38.37622,0 -38.37622,0 0,-51.88897 z"
       id="path3006"
       inkscape:connector-curvature="0"
       transform="translate(0,-364.96061)" />
    <path
       style="fill:none;stroke:#000000;stroke-width:0.54051017999999995"
       d="m 688.3176,955.48139 c 0.18405,-0.67557 8.42999,-23.97027 18.32429,-51.766 l 17.98965,-50.5377 11.33028,-0.1438 11.33028,-0.14381 14.23689,41.22258 c 7.83029,22.67241 15.90222,46.03155 17.93761,51.9092 l 3.70071,10.68662 -10.25928,-0.14667 -10.25929,-0.14668 -3.38819,-10.2697 -3.38819,-10.26969 -20.32311,-0.14158 -20.32311,-0.14158 -3.46998,10.41127 -3.46997,10.41128 -10.15162,0.14728 -10.15162,0.14728 0.33465,-1.2283 0,0 z m 61.81315,-37.30736 c -0.1374,-0.3716 -3.38384,-10.10078 -7.21433,-21.6204 -3.83048,-11.51963 -7.12904,-20.94477 -7.33014,-20.94477 -0.32905,0 -14.50892,41.86403 -14.50892,42.83552 0,0.22291 6.59322,0.40529 14.6516,0.40529 11.49418,0 14.59777,-0.1456 14.40179,-0.67564 z"
       id="path3008"
       inkscape:connector-curvature="0"
       transform="translate(0,-364.96061)" />
    <path
       style="fill:none;stroke:#000000;stroke-width:0.54051017999999995"
       d="m 791.88419,904.79641 0,-51.88898 15.30525,0 15.30525,0 9.4508,41.48209 c 6.97729,30.62516 9.65811,41.52201 10.24286,41.63462 0.6289,0.12112 2.68257,-8.42367 9.96987,-41.48208 l 9.17781,-41.63463 15.54152,0 15.54153,0 0,51.88898 0,51.88897 -9.99944,0 -9.99944,0 0,-40.80851 c 0,-35.9139 -0.0972,-40.80852 -0.81076,-40.80852 -0.44592,0 -0.81077,0.0976 -0.81077,0.21689 0,0.21475 -17.61325,77.84232 -18.19329,80.18399 -0.29902,1.20716 -0.37604,1.21615 -10.42101,1.21615 l -10.11978,0 -9.41066,-40.80851 c -6.32856,-27.44327 -9.6334,-40.80852 -10.09076,-40.80852 -0.54046,0 -0.6801,8.37917 -0.6801,40.80852 l 0,40.80851 -9.99944,0 -9.99944,0 0,-51.88897 z"
       id="path3010"
       inkscape:connector-curvature="0"
       transform="translate(0,-364.96061)" />
    <path
       style="fill:none;stroke:#000000;stroke-width:0.54051017999999995"
       d="m 989.1704,959.29411 c -5.02435,-0.71635 -12.63439,-3.38517 -16.97342,-5.95254 -4.75783,-2.81518 -11.55059,-9.29572 -14.68406,-14.00912 -6.4065,-9.63676 -9.39988,-20.37653 -9.39988,-33.72528 0,-16.33492 4.88924,-29.79591 14.48566,-39.88177 10.17245,-10.69127 25.36981,-15.79354 41.4357,-13.91138 27.446,3.21536 44.8879,26.48132 43.3543,57.83091 -0.5207,10.64512 -3.1179,19.5456 -8.0671,27.64569 -3.4886,5.70968 -10.7218,13.03785 -15.8288,16.03675 -9.2877,5.45385 -22.189,7.69665 -34.3224,5.96674 z m 13.2425,-16.68752 c 16.9861,-2.44504 27.4497,-20.95512 24.6156,-43.54486 -1.2562,-10.01296 -4.3301,-17.08488 -9.9184,-22.8186 -5.3694,-5.50917 -10.7854,-7.6609 -19.28276,-7.6609 -8.39995,0 -14.00538,2.19855 -19.41624,7.61541 -4.37086,4.37571 -7.70971,10.84723 -9.31708,18.05882 -1.18746,5.32761 -0.88051,19.55946 0.53624,24.86347 3.55629,13.31398 12.05476,21.84642 23.4035,23.49705 4.13124,0.60088 5.14034,0.59976 9.37914,-0.0104 l 0,-2e-5 z"
       id="path3012"
       inkscape:connector-curvature="0"
       transform="translate(0,-364.96061)" />
    <path
       style="fill:none;stroke:#000000;stroke-width:0.54051017999999995"
       d="m 1059.9772,904.78474 0,-51.90065 10.35,0.1468 10.35,0.1468 21.1347,36.33693 c 11.6241,19.98532 21.3172,36.34251 21.5401,36.34931 0.223,0.007 0.4054,-16.40562 0.4054,-36.47206 l 0,-36.48444 9.9995,0 9.9994,0 0,51.88898 0,51.88897 -10.2128,0 -10.2129,0 -21.5421,-37.06149 -21.5421,-37.0615 -0.1389,37.0615 -0.1388,37.06149 -9.9958,0 -9.9957,0 0,-51.90064 z"
       id="path3014"
       inkscape:connector-curvature="0"
       transform="translate(0,-364.96061)" />
  </g>
</svg>
