<?xml version="1.0" encoding="UTF-8" standalone="no"?>
<!-- Created with Inkscape (http://www.inkscape.org/) -->

<svg
   xmlns:dc="http://purl.org/dc/elements/1.1/"
   xmlns:cc="http://creativecommons.org/ns#"
   xmlns:rdf="http://www.w3.org/1999/02/22-rdf-syntax-ns#"
   xmlns:svg="http://www.w3.org/2000/svg"
   xmlns="http://www.w3.org/2000/svg"
   xmlns:sodipodi="http://sodipodi.sourceforge.net/DTD/sodipodi-0.dtd"
   xmlns:inkscape="http://www.inkscape.org/namespaces/inkscape"
   width="2125.9841"
   height="1417.3228"
   id="svg2"
   version="1.1"
   inkscape:version="0.48.3.1 r9886"
   sodipodi:docname="OperatorTest.svg">
  <defs
     id="defs4">
    <clipPath
       clipPathUnits="userSpaceOnUse"
       id="clipPath3025">
      <rect
         style="fill:#008000;stroke:none"
         id="rect3027"
         width="942.16669"
         height="130.32852"
         x="314.9606"
         y="-93.442848" />
    </clipPath>
    <clipPath
       clipPathUnits="userSpaceOnUse"
       id="clipPath3031">
      <rect
         style="fill:#008000;stroke:none"
         id="rect3033"
         width="955.74255"
         height="116.75264"
         x="314.9606"
         y="-93.442848" />
    </clipPath>
  </defs>
  <sodipodi:namedview
     id="base"
     pagecolor="#ffffff"
     bordercolor="#666666"
     borderopacity="1.0"
     inkscape:pageopacity="0.0"
     inkscape:pageshadow="2"
     inkscape:zoom="0.36830002"
     inkscape:cx="1062.9921"
     inkscape:cy="708.66138"
     inkscape:document-units="mm"
     inkscape:current-layer="layer1"
     showgrid="false"
     units="mm"
     inkscape:window-width="1366"
     inkscape:window-height="692"
     inkscape:window-x="0"
     inkscape:window-y="24"
     inkscape:window-maximized="1" />
  <metadata
     id="metadata7">
    <rdf:RDF>
      <cc:Work
         rdf:about="">
        <dc:format>image/svg+xml</dc:format>
        <dc:type
           rdf:resource="http://purl.org/dc/dcmitype/StillImage" />
        <dc:title></dc:title>
      </cc:Work>
    </rdf:RDF>
  </metadata>
  <g
     inkscape:label="Layer 1"
     inkscape:groupmode="layer"
     id="layer1"
     transform="translate(0,364.96061)">
    <path
       style="fill:#000000"
       d=""
       id="path3048"
       inkscape:connector-curvature="0" />
    <path
       style="fill:#000000"
       d=""
       id="path3046"
       inkscape:connector-curvature="0" />
    <path
       id="path3153"
       style="fill:none;stroke:#000000;stroke-width:0.93256837"
       d="m 81.436269,1033.6054 0,-5.5336 3.07423,0 3.074223,0 0,5.5336 0,5.5336 -3.074223,0 -3.07423,0 0,-5.5336 z m -22.13445,-16.9083 0,-5.2262 2.45937,0 2.45939,0 0,5.2262 0,5.2262 -2.45939,0 -2.45937,0 0,-5.2262 z m 0,16.9083 0,-5.5336 2.45937,0 2.45939,0 0,2.7668 0,2.7668 2.76681,0 2.7668,0 0,2.7668 0,2.7668 -5.22619,0 -5.22618,0 0,-5.5336 z m 22.13445,-47.65055 0,-2.76681 3.07423,0 3.074223,0 0,2.76681 0,2.7668 -3.074223,0 -3.07423,0 0,-2.7668 z m -5.53362,5.5336 0,-2.7668 2.45939,0 2.45938,0 0,2.7668 0,2.76681 -2.45938,0 -2.45939,0 0,-2.76681 z m -5.53361,-8.30041 0,-5.53362 2.45938,0 2.45939,0 0,5.53362 0,5.53361 -2.45939,0 -2.45938,0 0,-5.53361 z m 5.53361,-59.94749 0,-2.7668 2.45939,0 2.45938,0 0,2.7668 0,2.76681 -2.45938,0 -2.45939,0 0,-2.76681 z m -11.06722,0 0,-2.7668 2.45938,0 2.45938,0 0,2.7668 0,2.76681 -2.45938,0 -2.45938,0 0,-2.76681 z m -5.53361,14.14146 0,-5.22619 2.45937,0 2.45939,0 0,5.22619 0,5.2262 -2.45939,0 -2.45937,0 0,-5.2262 z m 28.897753,2.76681 c 0,-2.45939 0,-2.45939 2.45938,-2.45939 2.45939,0 2.45939,0 2.45939,2.45939 0,2.45939 0,2.45939 -2.45939,2.45939 -2.45938,0 -2.45938,0 -2.45938,-2.45939 z m 5.53361,-39.04271 0,-2.76681 2.45939,0 2.45938,0 0,2.76681 0,2.7668 -2.45938,0 -2.45939,0 0,-2.7668 z m 5.53362,11.06721 0,-2.7668 2.459378,0 2.45939,0 0,2.7668 0,2.76681 -2.45939,0 -2.459378,0 0,-2.76681 z m 5.533608,22.44189 c 0,-2.45939 0,-2.45939 2.45939,-2.45939 2.45938,0 2.45938,0 2.45938,2.45939 0,2.45938 0,2.45938 -2.45938,2.45938 -2.45939,0 -2.45939,0 -2.45939,-2.45938 z m 44.88375,11.06722 c 0,-2.45938 0,-2.45938 2.45939,-2.45938 2.45938,0 2.45938,0 2.45938,2.45938 0,2.45939 0,2.45939 -2.45938,2.45939 -2.45939,0 -2.45939,0 -2.45939,-2.45939 z m -5.53361,62.40687 0,-2.7668 2.45938,0 2.45939,0 0,2.7668 0,2.7668 -2.45939,0 -2.45938,0 0,-2.7668 z m 5.53361,-5.5336 0,-2.76683 2.45939,0 2.45938,0 0,2.76683 0,2.7668 -2.45938,0 -2.45939,0 0,-2.7668 z m -33.81652,0 0,-2.76683 2.76681,0 2.76681,0 0,2.76683 0,2.7668 -2.76681,0 -2.76681,0 0,-2.7668 z m 16.60084,33.8165 0,-2.7668 2.7668,0 2.76681,0 0,2.7668 0,2.7668 -2.76681,0 -2.7668,0 0,-2.7668 z m -27.66807,0 0,-2.7668 2.76681,0 2.76681,0 0,-2.7668 0,-2.7668 5.53361,0 5.53362,0 0,-2.7668 0,-2.7668 5.53361,0 5.53361,0 0,5.2262 0,5.2262 -8.30042,0 -8.30042,0 0,3.0742 0,3.0742 -5.53361,0 -5.53362,0 0,-2.7668 z m 44.88375,-0.3074 0,-3.0742 -5.84103,0 -5.84104,0 0,-5.2262 0,-5.2262 3.07423,0 3.07423,0 0,-2.7668 0,-2.7668 5.22619,0 5.22619,0 0,11.0672 0,11.0672 -2.45938,0 -2.45939,0 0,-3.0742 z m -102.064421,-55.64357 0,-2.76681 2.76681,0 2.76681,0 0,2.76681 0,2.76681 -2.76681,0 -2.76681,0 0,-2.76681 z m -27.66807,8.30042 0,-5.53361 2.45939,0 2.45938,0 0,5.53361 0,5.53361 -2.45938,0 -2.45939,0 0,-5.53361 z m 27.66807,-31.66457 0,-2.7668 2.76681,0 2.76681,0 0,2.7668 0,2.7668 -2.76681,0 -2.76681,0 0,-2.7668 z m 5.53362,-5.53361 0,-2.76681 2.7668,0 2.7668,0 0,2.76681 0,2.76681 -2.7668,0 -2.7668,0 0,-2.76681 z m -5.53362,-5.84104 0,-2.45938 2.76681,0 2.76681,0 0,2.45938 0,2.45939 -2.76681,0 -2.76681,0 0,-2.45939 z m -11.06723,5.53362 0,-3.07423 -2.7668,0 -2.76681,0 0,-2.45939 0,-2.45938 5.53361,0 5.53362,0 0,2.76681 0,2.7668 2.76681,0 2.7668,0 0,2.76681 0,2.76681 -5.53361,0 -5.53362,0 0,-3.07423 z m 22.74931,-50.10994 0,-2.76681 2.45937,0 2.45939,0 0,2.76681 0,2.7668 -2.45939,0 -2.45937,0 0,-2.7668 z m 11.06722,11.06721 0,-2.7668 -2.76681,0 -2.7668,0 0,-2.7668 0,-2.76681 5.22618,0 5.2262,0 0,5.53361 0,5.53361 -2.45939,0 -2.45938,0 0,-2.76681 z m 5.53361,-11.06721 0,-2.76681 5.84104,0 5.841033,0 0,2.76681 0,2.7668 -5.841033,0 -5.84104,0 0,-2.7668 z m 28.897761,2.7668 0,-5.53361 2.45939,0 2.45938,0 0,5.53361 0,5.53361 -2.45938,0 -2.45939,0 0,-5.53361 z m 0,16.60084 0,-5.53362 2.45939,0 2.45938,0 0,5.53362 0,5.53361 -2.45938,0 -2.45939,0 0,-5.53361 z m 11.06723,25.20868 0,-2.45938 2.76681,0 2.76681,0 0,2.45938 0,2.45939 -2.76681,0 -2.76681,0 0,-2.45939 z m 0,22.7493 0,-3.07423 5.53362,0 5.53361,0 0,3.07423 0,3.07423 -5.53361,0 -5.53362,0 0,-3.07423 z m 11.06723,6.14846 0,-2.45939 2.7668,0 2.76681,0 0,2.45939 0,2.45938 -2.76681,0 -2.7668,0 0,-2.45938 z m 17.21568,22.44188 0,-2.76681 -3.07423,0 -3.07423,0 0,-5.53361 0,-5.53361 -2.76681,0 -2.7668,0 0,-2.76681 0,-2.76681 5.84103,0 5.84104,0 0,-2.76681 0,-2.76681 2.45938,0 2.45939,0 0,2.76681 0,2.76681 2.76681,0 2.7668,0 0,5.53362 0,5.53361 -2.45938,0 -2.45939,0 0,-2.7668 0,-2.76681 -3.07423,0 -3.07422,0 0,2.76681 0,2.7668 2.7668,0 2.76681,0 0,5.53361 0,5.53361 -2.45939,0 -2.45938,0 0,-2.7668 z m 5.53361,-28.59034 0,-3.07423 -8.60784,0 -8.60784,0 0,-2.76681 0,-2.76681 -5.53361,0 -5.53361,0 0,-5.5336 0,-5.53362 13.83402,0 13.83404,0 0,2.76681 0,2.76681 -5.53361,0 -5.53362,0 0,2.7668 0,2.7668 5.84104,0 5.84103,0 0,-2.7668 0,-2.7668 2.45939,0 2.45938,0 0,8.60783 0,8.60785 -2.45938,0 -2.45939,0 0,-3.07423 z m -33.81652,-50.72479 0,-19.36764 19.36764,0 19.36765,0 0,19.36764 0,19.36765 -19.36765,0 -19.36764,0 0,-19.36765 z m 33.81652,0.30742 0,-14.14145 -14.14145,0 -14.14145,0 0,14.14145 0,14.14146 14.14145,0 14.14145,0 0,-14.14146 z m -22.74929,-0.30742 0,-8.30042 8.30041,0 8.30043,0 0,8.30042 0,8.30042 -8.30043,0 -8.30041,0 0,-8.30042 z m -45.498601,14.14146 0,-5.22619 3.38165,0 3.381653,0 0,-3.07423 0,-3.07423 -3.381653,0 -3.38165,0 0,-5.53362 0,-5.53361 5.841033,0 5.84104,0 0,5.53361 0,5.53362 2.76681,0 2.7668,0 0,8.30042 0,8.30042 -2.45938,0 -2.45939,0 0,-2.76681 0,-2.7668 -3.07423,0 -3.07423,0 0,2.7668 0,2.76681 -3.074223,0 -3.07423,0 0,-5.22619 z m -5.53362,39.35013 0,-5.84103 2.45939,0 2.45938,0 0,5.84103 0,5.84104 -2.45938,0 -2.45939,0 0,-5.84104 z m -5.53361,59.02517 0,-2.7668 -2.76681,0 -2.7668,0 0,-2.4593 0,-2.4594 5.53361,0 5.53361,0 0,-5.8411 0,-5.841 -2.76681,0 -2.7668,0 0,-8.3004 0,-8.30044 2.45938,0 2.45939,0 0,2.76681 0,2.7668 2.76681,0 2.7668,0 0,5.84103 0,5.841 3.38165,0 3.381653,0 0,5.2262 0,5.2262 -3.381653,0 -3.38165,0 0,2.7668 0,2.7668 -2.7668,0 -2.76681,0 0,2.7668 0,2.7669 -2.45939,0 -2.45938,0 0,-2.7669 z m -55.95098,-10.7598 0,-19.67503 19.36765,0 19.36765,0 0,19.67503 0,19.6751 -19.36765,0 -19.36765,0 0,-19.6751 z m 33.20168,0 0,-14.1414 -14.14145,0 -14.14146,0 0,14.1414 0,14.1415 14.14146,0 14.14145,0 0,-14.1415 z m -22.13445,0 0,-7.993 8.30042,0 8.30042,0 0,7.993 0,7.993 -8.30042,0 -8.30042,0 0,-7.993 z m 33.81653,-22.44183 0,-2.76681 -8.60785,0 -8.60784,0 0,-2.76681 0,-2.7668 -2.76681,0 -2.76681,0 0,2.7668 0,2.76681 -2.7668,0 -2.76681,0 0,-8.30041 0,-8.30043 5.53361,0 5.53362,0 0,2.76681 0,2.76681 2.76681,0 2.7668,0 0,2.76681 0,2.7668 2.76681,0 2.76681,0 0,-2.7668 0,-2.76681 5.5336,0 5.53362,0 0,8.30041 0,8.30042 -2.45939,0 -2.45937,0 0,-2.7668 z m 34.431363,33.50913 0,-2.4594 2.76681,0 2.76681,0 0,-5.8411 0,-5.841 -2.76681,0 -2.76681,0 0,-2.7668 0,-2.7668 -2.7668,0 -2.76681,0 0,-2.7668 0,-2.7668 8.30042,0 8.300418,0 0,-2.7668 0,-2.76683 -2.7668,0 -2.766808,0 0,-2.7668 0,-2.76681 -3.07423,0 -3.07423,0 0,2.76681 0,2.7668 -2.45939,0 -2.45938,0 0,-5.53361 0,-5.53361 8.30042,0 8.300418,0 0,-2.7668 0,-2.76681 -5.533608,0 -5.53362,0 0,-3.07423 0,-3.07424 -2.7668,0 -2.76681,0 0,-2.45938 0,-2.45939 5.53361,0 5.53362,0 0,-3.38165 0,-3.38165 2.766808,0 2.7668,0 0,-2.76681 0,-2.76681 -8.607838,0 -8.60785,0 0,2.76681 0,2.76681 -3.074223,0 -3.07423,0 0,-2.76681 0,-2.76681 -3.07423,0 -3.07423,0 0,2.76681 0,2.76681 -2.76681,0 -2.76681,0 0,3.07423 0,3.07423 -2.45938,0 -2.45938,0 0,-3.07423 0,-3.07423 -3.07424,0 -3.07423,0 0,3.07423 0,3.07423 -16.90825,0 -16.90827,0 0,2.7668 0,2.76681 -2.45938,0 -2.45939,0 0,-2.76681 0,-2.7668 -2.76681,0 -2.7668,0 0,-8.60785 0,-8.60783 2.7668,0 2.76681,0 0,-3.07423 0,-3.07423 -2.76681,0 -2.7668,0 0,-2.45939 0,-2.45938 5.22619,0 5.22619,0 0,2.76681 0,2.7668 3.07423,0 3.07423,0 0,2.76681 0,2.76681 2.76681,0 2.7668,0 0,2.7668 0,2.7668 5.53362,0 5.53361,0 0,2.76681 0,2.76681 2.76681,0 2.76681,0 0,-2.76681 0,-2.76681 3.07423,0 3.07423,0 0,-2.7668 0,-2.7668 2.45937,0 2.45939,0 0,2.7668 0,2.7668 3.07423,0 3.07423,0 0,-2.7668 0,-2.7668 5.53361,0 5.53362,0 0,-3.07423 0,-3.07423 -5.84104,0 -5.84104,0 0,3.07423 0,3.07423 -2.45938,0 -2.45938,0 0,-5.53362 0,-5.53361 2.7668,0 2.76681,0 0,-8.30042 0,-8.30042 2.45938,0 2.45939,0 0,5.53361 0,5.53361 2.76681,0 2.7668,0 0,2.76681 0,2.76681 3.38165,0 3.381653,0 0,5.53361 0,5.53362 5.84104,0 5.84104,0 0,-3.07423 0,-3.07423 -2.76681,0 -2.76681,0 0,-2.45939 0,-2.45938 2.76681,0 2.76681,0 0,-2.76681 0,-2.76681 2.459378,0 2.45939,0 0,2.76681 0,2.76681 2.76681,0 2.7668,0 0,2.45938 0,2.45939 -2.7668,0 -2.76681,0 0,3.07423 0,3.07423 5.84104,0 5.84103,0 0,2.7668 0,2.7668 -3.07423,0 -3.07423,0 0,8.91527 0,8.91527 5.84104,0 5.84104,0 0,2.76681 0,2.76681 2.7668,0 2.76681,0 0,2.76681 0,2.7668 2.7668,0 2.76681,0 0,5.53361 0,5.53361 2.7668,0 2.76681,0 0,2.76683 0,2.7668 -2.76681,0 -2.7668,0 0,3.0742 0,3.0742 2.7668,0 2.76681,0 0,5.2262 0,5.2262 -2.76681,0 -2.7668,0 0,-2.7668 0,-2.7668 -5.53361,0 -5.53361,0 0,2.7668 0,2.7668 -5.53362,0 -5.53361,0 0,-2.7668 0,-2.7668 -3.07423,0 -3.07423,0 0,8.3004 0,8.3005 -5.226188,0 -5.2262,0 0,-2.4594 z m 33.201688,-27.6681 0,-8.60784 -8.60784,0 -8.60785,0 0,8.60784 0,8.6078 8.60785,0 8.60784,0 0,-8.6078 z m -90.382361,-40.27241 0,-2.76681 -5.84103,0 -5.84104,0 0,2.76681 0,2.76681 5.84104,0 5.84103,0 0,-2.76681 z m -11.06722,-44.88375 0,-8.30042 8.30042,0 8.30042,0 0,8.30042 0,8.30042 -8.30042,0 -8.30042,0 0,-8.30042 z m -11.06723,0 0,-19.36764 19.36765,0 19.36765,0 0,19.36764 0,19.36765 -19.36765,0 -19.36765,0 0,-19.36765 z m 33.20168,0.30742 0,-14.14145 -14.14145,0 -14.14146,0 0,14.14145 0,14.14146 14.14146,0 14.14145,0 0,-14.14146 z"
       inkscape:connector-curvature="0" />
  </g>
</svg>
