999
dxflib 2.2.0.0
  0
SECTION
  2
HEADER
  9
$ACADVER
  1
AC1015
  9
$HANDSEED
  5
FFFF
  9
$DIMASZ
 40
2.5
  9
$PLIMMIN
 10
0.0
 20
0.0
  9
$DIMEXE
 40
1.25
  9
$DIMGAP
 40
0.625
  9
$PLIMMAX
 10
210.0
 20
297.0
  9
$INSUNITS
 70
4
  9
$DIMSTYLE
  2
Standard
  9
$MEASUREMENT
 70
1
  9
$DIMEXO
 40
0.625
  9
$DIMTXT
 40
2.5
  0
ENDSEC
  0
SECTION
  2
TABLES
  0
TABLE
  2
VPORT
  5
8
100
AcDbSymbolTable
 70
1
  0
VPORT
  5
30
100
AcDbSymbolTableRecord
100
AcDbViewportTableRecord
  2
*Active
 70
0
 10
0.0
 20
0.0
 11
1.0
 21
1.0
 12
286.3055555555554861
 22
148.5
 13
0.0
 23
0.0
 14
10.0
 24
10.0
 15
10.0
 25
10.0
 16
0.0
 26
0.0
 36
1.0
 17
0.0
 27
0.0
 37
0.0
 40
297.0
 41
1.92798353909465
 42
50.0
 43
0.0
 44
0.0
 50
0.0
 51
0.0
 71
0
 72
100
 73
1
 74
3
 75
1
 76
1
 77
0
 78
0
281
0
 65
1
110
0.0
120
0.0
130
0.0
111
1.0
121
0.0
131
0.0
112
0.0
122
1.0
132
0.0
 79
0
146
0.0
  0
ENDTAB
  0
TABLE
  2
LTYPE
  5
5
100
AcDbSymbolTable
 70
21
  0
LTYPE
  5
14
100
AcDbSymbolTableRecord
100
AcDbLinetypeTableRecord
  2
ByBlock
 70
0
  3

 72
65
 73
0
 40
0.0
  0
LTYPE
  5
15
100
AcDbSymbolTableRecord
100
AcDbLinetypeTableRecord
  2
ByLayer
 70
0
  3

 72
65
 73
0
 40
0.0
  0
LTYPE
  5
16
100
AcDbSymbolTableRecord
100
AcDbLinetypeTableRecord
  2
CONTINUOUS
 70
0
  3
Solid line
 72
65
 73
0
 40
0.0
  0
LTYPE
  5
31
100
AcDbSymbolTableRecord
100
AcDbLinetypeTableRecord
  2
DOT
 70
0
  3
Dot . . . . . . . . . . . . . . . . . . . . . .
 72
65
 73
2
 40
6.3499999999999996
 49
0.0
 74
0
 49
-6.3499999999999996
 74
0
  0
LTYPE
  5
32
100
AcDbSymbolTableRecord
100
AcDbLinetypeTableRecord
  2
DOT2
 70
0
  3
Dot (.5x) .....................................
 72
65
 73
2
 40
3.1749999999999998
 49
0.0
 74
0
 49
-3.1749999999999998
 74
0
  0
LTYPE
  5
33
100
AcDbSymbolTableRecord
100
AcDbLinetypeTableRecord
  2
DOTX2
 70
0
  3
Dot (2x) .  .  .  .  .  .  .  .  .  .  .  .  .
 72
65
 73
2
 40
12.6999999999999993
 49
0.0
 74
0
 49
-12.6999999999999993
 74
0
  0
LTYPE
  5
34
100
AcDbSymbolTableRecord
100
AcDbLinetypeTableRecord
  2
DASHED
 70
0
  3
Dashed __ __ __ __ __ __ __ __ __ __ __ __ __ _
 72
65
 73
2
 40
19.0500000000000007
 49
12.6999999999999993
 74
0
 49
-6.3499999999999996
 74
0
  0
LTYPE
  5
35
100
AcDbSymbolTableRecord
100
AcDbLinetypeTableRecord
  2
DASHED2
 70
0
  3
Dashed (.5x) _ _ _ _ _ _ _ _ _ _ _ _ _ _ _ _ _
 72
65
 73
2
 40
9.5250000000000004
 49
6.3499999999999996
 74
0
 49
-3.1749999999999998
 74
0
  0
LTYPE
  5
36
100
AcDbSymbolTableRecord
100
AcDbLinetypeTableRecord
  2
DASHEDX2
 70
0
  3
Dashed (2x) ____  ____  ____  ____  ____  ___
 72
65
 73
2
 40
38.1000000000000014
 49
25.3999999999999986
 74
0
 49
-12.6999999999999993
 74
0
  0
LTYPE
  5
37
100
AcDbSymbolTableRecord
100
AcDbLinetypeTableRecord
  2
DASHDOT
 70
0
  3
Dash dot __ . __ . __ . __ . __ . __ . __ . __
 72
65
 73
4
 40
25.3999999999999986
 49
12.6999999999999993
 74
0
 49
-6.3499999999999996
 74
0
 49
0.0
 74
0
 49
-6.3499999999999996
 74
0
  0
LTYPE
  5
38
100
AcDbSymbolTableRecord
100
AcDbLinetypeTableRecord
  2
DASHDOT2
 70
0
  3
Dash dot (.5x) _._._._._._._._._._._._._._._.
 72
65
 73
4
 40
12.6999999999999993
 49
6.3499999999999996
 74
0
 49
-3.1749999999999998
 74
0
 49
0.0
 74
0
 49
-3.1749999999999998
 74
0
  0
LTYPE
  5
39
100
AcDbSymbolTableRecord
100
AcDbLinetypeTableRecord
  2
DASHDOTX2
 70
0
  3
Dash dot (2x) ____  .  ____  .  ____  .  ___
 72
65
 73
4
 40
50.7999999999999972
 49
25.3999999999999986
 74
0
 49
-12.6999999999999993
 74
0
 49
0.0
 74
0
 49
-12.6999999999999993
 74
0
  0
LTYPE
  5
3A
100
AcDbSymbolTableRecord
100
AcDbLinetypeTableRecord
  2
DIVIDE
 70
0
  3
Divide ____ . . ____ . . ____ . . ____ . . ____
 72
65
 73
6
 40
31.75
 49
12.6999999999999993
 74
0
 49
-6.3499999999999996
 74
0
 49
0.0
 74
0
 49
-6.3499999999999996
 74
0
 49
0.0
 74
0
 49
-6.3499999999999996
 74
0
  0
LTYPE
  5
3B
100
AcDbSymbolTableRecord
100
AcDbLinetypeTableRecord
  2
DIVIDE2
 70
0
  3
Divide (.5x) __..__..__..__..__..__..__..__.._
 72
65
 73
6
 40
15.875
 49
6.3499999999999996
 74
0
 49
-3.1749999999999998
 74
0
 49
0.0
 74
0
 49
-3.1749999999999998
 74
0
 49
0.0
 74
0
 49
-3.1749999999999998
 74
0
  0
LTYPE
  5
3C
100
AcDbSymbolTableRecord
100
AcDbLinetypeTableRecord
  2
DIVIDEX2
 70
0
  3
Divide (2x) ________  .  .  ________  .  .  _
 72
65
 73
6
 40
63.5
 49
25.3999999999999986
 74
0
 49
-12.6999999999999993
 74
0
 49
0.0
 74
0
 49
-12.6999999999999993
 74
0
 49
0.0
 74
0
 49
-12.6999999999999993
 74
0
  0
LTYPE
  5
3D
100
AcDbSymbolTableRecord
100
AcDbLinetypeTableRecord
  2
CENTER
 70
0
  3
Center ____ _ ____ _ ____ _ ____ _ ____ _ ____
 72
65
 73
4
 40
50.7999999999999972
 49
31.75
 74
0
 49
-6.3499999999999996
 74
0
 49
6.3499999999999996
 74
0
 49
-6.3499999999999996
 74
0
  0
LTYPE
  5
3E
100
AcDbSymbolTableRecord
100
AcDbLinetypeTableRecord
  2
CENTER2
 70
0
  3
Center (.5x) ___ _ ___ _ ___ _ ___ _ ___ _ ___
 72
65
 73
4
 40
28.5749999999999993
 49
19.0500000000000007
 74
0
 49
-3.1749999999999998
 74
0
 49
3.1749999999999998
 74
0
 49
-3.1749999999999998
 74
0
  0
LTYPE
  5
3F
100
AcDbSymbolTableRecord
100
AcDbLinetypeTableRecord
  2
CENTERX2
 70
0
  3
Center (2x) ________  __  ________  __  _____
 72
65
 73
4
 40
101.5999999999999943
 49
63.5
 74
0
 49
-12.6999999999999993
 74
0
 49
12.6999999999999993
 74
0
 49
-12.6999999999999993
 74
0
  0
LTYPE
  5
40
100
AcDbSymbolTableRecord
100
AcDbLinetypeTableRecord
  2
BORDER
 70
0
  3
Border __ __ . __ __ . __ __ . __ __ . __ __ .
 72
65
 73
6
 40
44.4500000000000028
 49
12.6999999999999993
 74
0
 49
-6.3499999999999996
 74
0
 49
12.6999999999999993
 74
0
 49
-6.3499999999999996
 74
0
 49
0.0
 74
0
 49
-6.3499999999999996
 74
0
  0
LTYPE
  5
41
100
AcDbSymbolTableRecord
100
AcDbLinetypeTableRecord
  2
BORDER2
 70
0
  3
Border (.5x) __.__.__.__.__.__.__.__.__.__.__.
 72
65
 73
6
 40
22.2250000000000014
 49
6.3499999999999996
 74
0
 49
-3.1749999999999998
 74
0
 49
6.3499999999999996
 74
0
 49
-3.1749999999999998
 74
0
 49
0.0
 74
0
 49
-3.1749999999999998
 74
0
  0
LTYPE
  5
42
100
AcDbSymbolTableRecord
100
AcDbLinetypeTableRecord
  2
BORDERX2
 70
0
  3
Border (2x) ____  ____  .  ____  ____  .  ___
 72
65
 73
6
 40
88.9000000000000057
 49
25.3999999999999986
 74
0
 49
-12.6999999999999993
 74
0
 49
25.3999999999999986
 74
0
 49
-12.6999999999999993
 74
0
 49
0.0
 74
0
 49
-12.6999999999999993
 74
0
  0
ENDTAB
  0
TABLE
  2
LAYER
  5
2
100
AcDbSymbolTable
 70
3
  0
LAYER
  5
10
100
AcDbSymbolTableRecord
100
AcDbLayerTableRecord
  2
0
 70
0
 62
7
  6
CONTINUOUS
390
F
  0
LAYER
  5
43
100
AcDbSymbolTableRecord
100
AcDbLayerTableRecord
  2
Cut
 70
0
 62
1
  6
CONTINUOUS
370
0
390
F
  0
LAYER
  5
44
100
AcDbSymbolTableRecord
100
AcDbLayerTableRecord
  2
Engrave
 70
0
 62
7
  6
CONTINUOUS
370
0
390
F
  0
ENDTAB
  0
TABLE
  2
STYLE
  5
3
100
AcDbSymbolTable
 70
1
  0
STYLE
  5
11
100
AcDbSymbolTableRecord
100
AcDbTextStyleTableRecord
  2
Standard
 70
0
 40
0.0
 41
0.75
 50
0.0
 71
0
 42
2.5
  3
txt
  4

  0
ENDTAB
  0
TABLE
  2
VIEW
  5
6
100
AcDbSymbolTable
 70
0
  0
ENDTAB
  0
TABLE
  2
UCS
  5
7
100
AcDbSymbolTable
 70
0
  0
ENDTAB
  0
TABLE
  2
APPID
  5
9
100
AcDbSymbolTable
 70
1
  0
APPID
  5
12
100
AcDbSymbolTableRecord
100
AcDbRegAppTableRecord
  2
ACAD
 70
0
  0
ENDTAB
  0
TABLE
  2
DIMSTYLE
  5
A
100
AcDbSymbolTable
 70
1
100
AcDbDimStyleTable
 71
0
  0
DIMSTYLE
105
27
100
AcDbSymbolTableRecord
100
AcDbDimStyleTableRecord
  2
Standard
 41
2.5
 42
0.625
 43
3.75
 44
1.25
 70
0
 73
0
 74
0
 77
1
 78
8
140
2.5
141
2.5
143
0.03937007874016
147
0.625
171
3
172
1
271
2
272
2
274
3
278
44
283
0
284
8
340
11
  0
ENDTAB
  0
TABLE
  2
BLOCK_RECORD
  5
1
100
AcDbSymbolTable
 70
1
  0
BLOCK_RECORD
  5
1F
100
AcDbSymbolTableRecord
100
AcDbBlockTableRecord
  2
*Model_Space
340
22
  0
BLOCK_RECORD
  5
1B
100
AcDbSymbolTableRecord
100
AcDbBlockTableRecord
  2
*Paper_Space
340
1E
  0
BLOCK_RECORD
  5
23
100
AcDbSymbolTableRecord
100
AcDbBlockTableRecord
  2
*Paper_Space0
340
26
  0
ENDTAB
  0
ENDSEC
  0
SECTION
  2
BLOCKS
  0
BLOCK
  5
20
100
AcDbEntity
  8
0
100
AcDbBlockBegin
  2
*Model_Space
 70
0
 10
0.0
 20
0.0
 30
0.0
  3
*Model_Space
  1

  0
ENDBLK
  5
21
100
AcDbEntity
  8
0
100
AcDbBlockEnd
  0
BLOCK
  5
1C
100
AcDbEntity
 67
1
  8
0
100
AcDbBlockBegin
  2
*Paper_Space
 70
0
 10
0.0
 20
0.0
 30
0.0
  3
*Paper_Space
  1

  0
ENDBLK
  5
1D
100
AcDbEntity
 67
1
  8
0
100
AcDbBlockEnd
  0
BLOCK
  5
24
100
AcDbEntity
  8
0
100
AcDbBlockBegin
  2
*Paper_Space0
 70
0
 10
0.0
 20
0.0
 30
0.0
  3
*Paper_Space0
  1

  0
ENDBLK
  5
25
100
AcDbEntity
  8
0
100
AcDbBlockEnd
  0
ENDSEC
  0
SECTION
  2
ENTITIES
  0
LWPOLYLINE
  5
45
  8
Engrave
 62
7
370
-1
  6
ByLayer
100
AcDbEntity
100
AcDbPolyline
 90
10
 70
0
 10
22.9831250000000011
 20
5.2935829999999999
 10
22.9831250000000011
 20
6.8552879999999998
 10
23.8507409999999993
 20
6.8552879999999998
 10
24.718354999999999
 20
6.8552879999999998
 10
24.718354999999999
 20
5.2935829999999999
 10
24.718354999999999
 20
3.731878
 10
23.8507409999999993
 20
3.731878
 10
22.9831250000000011
 20
3.731878
 10
22.9831250000000011
 20
5.2935829999999999
 10
22.9831250000000011
 20
5.2935829999999999
  0
LWPOLYLINE
  5
46
  8
Engrave
 62
7
370
-1
  6
ByLayer
100
AcDbEntity
100
AcDbPolyline
 90
10
 70
0
 10
16.7362910000000014
 20
10.0654810000000001
 10
16.7362910000000014
 20
11.5404309999999999
 10
17.4303799999999995
 20
11.5404309999999999
 10
18.1244750000000003
 20
11.5404309999999999
 10
18.1244750000000003
 20
10.0654810000000001
 10
18.1244750000000003
 20
8.5905310000000004
 10
17.4303799999999995
 20
8.5905310000000004
 10
16.7362910000000014
 20
8.5905310000000004
 10
16.7362910000000014
 20
10.0654810000000001
 10
16.7362910000000014
 20
10.0654810000000001
  0
LWPOLYLINE
  5
47
  8
Engrave
 62
7
370
-1
  6
ByLayer
100
AcDbEntity
100
AcDbPolyline
 90
14
 70
0
 10
16.7362910000000014
 20
5.2935829999999999
 10
16.7362910000000014
 20
6.8552879999999998
 10
17.4303799999999995
 20
6.8552879999999998
 10
18.1244750000000003
 20
6.8552879999999998
 10
18.1244750000000003
 20
6.0744350000000003
 10
18.1244750000000003
 20
5.2935829999999999
 10
18.9053299999999993
 20
5.2935829999999999
 10
19.6861819999999987
 20
5.2935829999999999
 10
19.6861819999999987
 20
4.5127309999999996
 10
19.6861819999999987
 20
3.731878
 10
18.2112349999999985
 20
3.731878
 10
16.7362910000000014
 20
3.731878
 10
16.7362910000000014
 20
5.2935829999999999
 10
16.7362910000000014
 20
5.2935829999999999
  0
LWPOLYLINE
  5
48
  8
Engrave
 62
7
370
-1
  6
ByLayer
100
AcDbEntity
100
AcDbPolyline
 90
10
 70
0
 10
22.9831250000000011
 20
18.7416270000000011
 10
22.9831250000000011
 20
19.5224820000000001
 10
23.8507409999999993
 20
19.5224820000000001
 10
24.718354999999999
 20
19.5224820000000001
 10
24.718354999999999
 20
18.7416270000000011
 10
24.718354999999999
 20
17.9607750000000017
 10
23.8507409999999993
 20
17.9607750000000017
 10
22.9831250000000011
 20
17.9607750000000017
 10
22.9831250000000011
 20
18.7416270000000011
 10
22.9831250000000011
 20
18.7416270000000011
  0
LWPOLYLINE
  5
49
  8
Engrave
 62
7
370
-1
  6
ByLayer
100
AcDbEntity
100
AcDbPolyline
 90
10
 70
0
 10
21.4214139999999986
 20
17.1799220000000012
 10
21.4214139999999986
 20
17.9607750000000017
 10
22.1155089999999994
 20
17.9607750000000017
 10
22.8095999999999997
 20
17.9607750000000017
 10
22.8095999999999997
 20
17.1799220000000012
 10
22.8095999999999997
 20
16.3990669999999987
 10
22.1155089999999994
 20
16.3990669999999987
 10
21.4214139999999986
 20
16.3990669999999987
 10
21.4214139999999986
 20
17.1799220000000012
 10
21.4214139999999986
 20
17.1799220000000012
  0
LWPOLYLINE
  5
4A
  8
Engrave
 62
7
370
-1
  6
ByLayer
100
AcDbEntity
100
AcDbPolyline
 90
10
 70
0
 10
19.8597070000000002
 20
19.5224820000000001
 10
19.8597070000000002
 20
21.0841929999999991
 10
20.5537980000000005
 20
21.0841929999999991
 10
21.2478930000000013
 20
21.0841929999999991
 10
21.2478930000000013
 20
19.5224820000000001
 10
21.2478930000000013
 20
17.9607750000000017
 10
20.5537980000000005
 20
17.9607750000000017
 10
19.8597070000000002
 20
17.9607750000000017
 10
19.8597070000000002
 20
19.5224820000000001
 10
19.8597070000000002
 20
19.5224820000000001
  0
LWPOLYLINE
  5
4B
  8
Engrave
 62
7
370
-1
  6
ByLayer
100
AcDbEntity
100
AcDbPolyline
 90
10
 70
0
 10
21.4214139999999986
 20
36.4409959999999984
 10
21.4214139999999986
 20
37.2218489999999989
 10
22.1155089999999994
 20
37.2218489999999989
 10
22.8095999999999997
 20
37.2218489999999989
 10
22.8095999999999997
 20
36.4409959999999984
 10
22.8095999999999997
 20
35.660141000000003
 10
22.1155089999999994
 20
35.660141000000003
 10
21.4214139999999986
 20
35.660141000000003
 10
21.4214139999999986
 20
36.4409959999999984
 10
21.4214139999999986
 20
36.4409959999999984
  0
LWPOLYLINE
  5
4C
  8
Engrave
 62
7
370
-1
  6
ByLayer
100
AcDbEntity
100
AcDbPolyline
 90
10
 70
0
 10
18.2979990000000008
 20
36.4409959999999984
 10
18.2979990000000008
 20
37.2218489999999989
 10
18.9920909999999985
 20
37.2218489999999989
 10
19.6861819999999987
 20
37.2218489999999989
 10
19.6861819999999987
 20
36.4409959999999984
 10
19.6861819999999987
 20
35.660141000000003
 10
18.9920909999999985
 20
35.660141000000003
 10
18.2979990000000008
 20
35.660141000000003
 10
18.2979990000000008
 20
36.4409959999999984
 10
18.2979990000000008
 20
36.4409959999999984
  0
SPLINE
  5
4D
  8
Engrave
 62
7
370
-1
  6
ByLayer
100
AcDbEntity
100
AcDbSpline
 70
8
 71
3
 72
8
 73
4
 74
0
 40
0.0
 40
0.0
 40
0.0
 40
0.0
 40
1.0
 40
1.0
 40
1.0
 40
1.0
 10
24.8918789999999994
 20
31.6691070000000003
 30
0.0
 10
24.8918789999999994
 20
32.3632009999999966
 30
0.0
 10
24.8918789999999994
 20
32.3632009999999966
 30
0.0
 10
25.5859710000000007
 20
32.3632009999999966
 30
0.0
  0
SPLINE
  5
4E
  8
Engrave
 62
7
370
-1
  6
ByLayer
100
AcDbEntity
100
AcDbSpline
 70
8
 71
3
 72
8
 73
4
 74
0
 40
0.0
 40
0.0
 40
0.0
 40
0.0
 40
1.0
 40
1.0
 40
1.0
 40
1.0
 10
25.5859710000000007
 20
32.3632009999999966
 30
0.0
 10
26.2800650000000005
 20
32.3632009999999966
 30
0.0
 10
26.2800650000000005
 20
32.3632009999999966
 30
0.0
 10
26.2800650000000005
 20
31.6691070000000003
 30
0.0
  0
SPLINE
  5
4F
  8
Engrave
 62
7
370
-1
  6
ByLayer
100
AcDbEntity
100
AcDbSpline
 70
8
 71
3
 72
8
 73
4
 74
0
 40
0.0
 40
0.0
 40
0.0
 40
0.0
 40
1.0
 40
1.0
 40
1.0
 40
1.0
 10
26.2800650000000005
 20
31.6691070000000003
 30
0.0
 10
26.2800650000000005
 20
30.9750119999999995
 30
0.0
 10
26.2800650000000005
 20
30.9750119999999995
 30
0.0
 10
25.5859710000000007
 20
30.9750119999999995
 30
0.0
  0
SPLINE
  5
50
  8
Engrave
 62
7
370
-1
  6
ByLayer
100
AcDbEntity
100
AcDbSpline
 70
8
 71
3
 72
8
 73
4
 74
0
 40
0.0
 40
0.0
 40
0.0
 40
0.0
 40
1.0
 40
1.0
 40
1.0
 40
1.0
 10
25.5859710000000007
 20
30.9750119999999995
 30
0.0
 10
24.8918789999999994
 20
30.9750119999999995
 30
0.0
 10
24.8918789999999994
 20
30.9750119999999995
 30
0.0
 10
24.8918789999999994
 20
31.6691070000000003
 30
0.0
  0
LWPOLYLINE
  5
51
  8
Engrave
 62
7
370
-1
  6
ByLayer
100
AcDbEntity
100
AcDbPolyline
 90
10
 70
0
 10
16.7362910000000014
 20
32.4499619999999993
 10
16.7362910000000014
 20
33.9249089999999995
 10
17.4303799999999995
 20
33.9249089999999995
 10
18.1244750000000003
 20
33.9249089999999995
 10
18.1244750000000003
 20
32.4499619999999993
 10
18.1244750000000003
 20
30.9750119999999995
 10
17.4303799999999995
 20
30.9750119999999995
 10
16.7362910000000014
 20
30.9750119999999995
 10
16.7362910000000014
 20
32.4499619999999993
 10
16.7362910000000014
 20
32.4499619999999993
  0
LWPOLYLINE
  5
52
  8
Engrave
 62
7
370
-1
  6
ByLayer
100
AcDbEntity
100
AcDbPolyline
 90
2
 70
0
 10
24.8918789999999994
 20
31.6691070000000003
 10
24.8918789999999994
 20
31.6691070000000003
  0
LWPOLYLINE
  5
53
  8
Engrave
 62
7
370
-1
  6
ByLayer
100
AcDbEntity
100
AcDbPolyline
 90
10
 70
0
 10
26.4535869999999989
 20
42.6878269999999986
 10
26.4535869999999989
 20
43.4686820000000012
 10
27.1476809999999986
 20
43.4686820000000012
 10
27.8417729999999999
 20
43.4686820000000012
 10
27.8417729999999999
 20
42.6878269999999986
 10
27.8417729999999999
 20
41.9069750000000028
 10
27.1476809999999986
 20
41.9069750000000028
 10
26.4535869999999989
 20
41.9069750000000028
 10
26.4535869999999989
 20
42.6878269999999986
 10
26.4535869999999989
 20
42.6878269999999986
  0
SPLINE
  5
54
  8
Engrave
 62
7
370
-1
  6
ByLayer
100
AcDbEntity
100
AcDbSpline
 70
8
 71
3
 72
8
 73
4
 74
0
 40
0.0
 40
0.0
 40
0.0
 40
0.0
 40
1.0
 40
1.0
 40
1.0
 40
1.0
 10
29.5770049999999998
 20
33.2308140000000023
 30
0.0
 10
29.5770049999999998
 20
33.9249089999999995
 30
0.0
 10
29.5770049999999998
 20
33.9249089999999995
 30
0.0
 10
30.2710989999999995
 20
33.9249089999999995
 30
0.0
  0
SPLINE
  5
55
  8
Engrave
 62
7
370
-1
  6
ByLayer
100
AcDbEntity
100
AcDbSpline
 70
8
 71
3
 72
8
 73
4
 74
0
 40
0.0
 40
0.0
 40
0.0
 40
0.0
 40
1.0
 40
1.0
 40
1.0
 40
1.0
 10
30.2710989999999995
 20
33.9249089999999995
 30
0.0
 10
30.9651910000000008
 20
33.9249089999999995
 30
0.0
 10
30.9651910000000008
 20
33.9249089999999995
 30
0.0
 10
30.9651910000000008
 20
33.2308140000000023
 30
0.0
  0
SPLINE
  5
56
  8
Engrave
 62
7
370
-1
  6
ByLayer
100
AcDbEntity
100
AcDbSpline
 70
8
 71
3
 72
8
 73
4
 74
0
 40
0.0
 40
0.0
 40
0.0
 40
0.0
 40
1.0
 40
1.0
 40
1.0
 40
1.0
 10
30.9651910000000008
 20
33.2308140000000023
 30
0.0
 10
30.9651910000000008
 20
32.5367230000000021
 30
0.0
 10
30.9651910000000008
 20
32.5367230000000021
 30
0.0
 10
30.2710989999999995
 20
32.5367230000000021
 30
0.0
  0
SPLINE
  5
57
  8
Engrave
 62
7
370
-1
  6
ByLayer
100
AcDbEntity
100
AcDbSpline
 70
8
 71
3
 72
8
 73
4
 74
0
 40
0.0
 40
0.0
 40
0.0
 40
0.0
 40
1.0
 40
1.0
 40
1.0
 40
1.0
 10
30.2710989999999995
 20
32.5367230000000021
 30
0.0
 10
29.5770049999999998
 20
32.5367230000000021
 30
0.0
 10
29.5770049999999998
 20
32.5367230000000021
 30
0.0
 10
29.5770049999999998
 20
33.2308140000000023
 30
0.0
  0
LWPOLYLINE
  5
58
  8
Engrave
 62
7
370
-1
  6
ByLayer
100
AcDbEntity
100
AcDbPolyline
 90
10
 70
0
 10
28.0152970000000003
 20
39.5644139999999993
 10
28.0152970000000003
 20
40.3452669999999998
 10
28.7093890000000016
 20
40.3452669999999998
 10
29.4034830000000014
 20
40.3452669999999998
 10
29.4034830000000014
 20
39.5644139999999993
 10
29.4034830000000014
 20
38.7835589999999968
 10
28.7093890000000016
 20
38.7835589999999968
 10
28.0152970000000003
 20
38.7835589999999968
 10
28.0152970000000003
 20
39.5644139999999993
 10
28.0152970000000003
 20
39.5644139999999993
  0
SPLINE
  5
59
  8
Engrave
 62
7
370
-1
  6
ByLayer
100
AcDbEntity
100
AcDbSpline
 70
8
 71
3
 72
8
 73
4
 74
0
 40
0.0
 40
0.0
 40
0.0
 40
0.0
 40
1.0
 40
1.0
 40
1.0
 40
1.0
 10
42.2441960000000023
 20
30.1073990000000009
 30
0.0
 10
42.2441960000000023
 20
30.8014909999999986
 30
0.0
 10
42.2441960000000023
 20
30.8014909999999986
 30
0.0
 10
42.9382909999999995
 20
30.8014909999999986
 30
0.0
  0
SPLINE
  5
5A
  8
Engrave
 62
7
370
-1
  6
ByLayer
100
AcDbEntity
100
AcDbSpline
 70
8
 71
3
 72
8
 73
4
 74
0
 40
0.0
 40
0.0
 40
0.0
 40
0.0
 40
1.0
 40
1.0
 40
1.0
 40
1.0
 10
42.9382909999999995
 20
30.8014909999999986
 30
0.0
 10
43.6323819999999998
 20
30.8014909999999986
 30
0.0
 10
43.6323819999999998
 20
30.8014909999999986
 30
0.0
 10
43.6323819999999998
 20
30.1073990000000009
 30
0.0
  0
SPLINE
  5
5B
  8
Engrave
 62
7
370
-1
  6
ByLayer
100
AcDbEntity
100
AcDbSpline
 70
8
 71
3
 72
8
 73
4
 74
0
 40
0.0
 40
0.0
 40
0.0
 40
0.0
 40
1.0
 40
1.0
 40
1.0
 40
1.0
 10
43.6323819999999998
 20
30.1073990000000009
 30
0.0
 10
43.6323819999999998
 20
29.4133040000000001
 30
0.0
 10
43.6323819999999998
 20
29.4133040000000001
 30
0.0
 10
42.9382909999999995
 20
29.4133040000000001
 30
0.0
  0
SPLINE
  5
5C
  8
Engrave
 62
7
370
-1
  6
ByLayer
100
AcDbEntity
100
AcDbSpline
 70
8
 71
3
 72
8
 73
4
 74
0
 40
0.0
 40
0.0
 40
0.0
 40
0.0
 40
1.0
 40
1.0
 40
1.0
 40
1.0
 10
42.9382909999999995
 20
29.4133040000000001
 30
0.0
 10
42.2441960000000023
 20
29.4133040000000001
 30
0.0
 10
42.2441960000000023
 20
29.4133040000000001
 30
0.0
 10
42.2441960000000023
 20
30.1073990000000009
 30
0.0
  0
LWPOLYLINE
  5
5D
  8
Engrave
 62
7
370
-1
  6
ByLayer
100
AcDbEntity
100
AcDbPolyline
 90
2
 70
0
 10
29.5770049999999998
 20
33.2308140000000023
 10
29.5770049999999998
 20
33.2308140000000023
  0
LWPOLYLINE
  5
5E
  8
Engrave
 62
7
370
-1
  6
ByLayer
100
AcDbEntity
100
AcDbPolyline
 90
2
 70
0
 10
42.2441960000000023
 20
30.1073990000000009
 10
42.2441960000000023
 20
30.1073990000000009
  0
LWPOLYLINE
  5
5F
  8
Engrave
 62
7
370
-1
  6
ByLayer
100
AcDbEntity
100
AcDbPolyline
 90
10
 70
0
 10
40.6824889999999968
 20
12.4947929999999996
 10
40.6824889999999968
 20
13.2756460000000001
 10
41.376579999999997
 20
13.2756460000000001
 10
42.0706750000000014
 20
13.2756460000000001
 10
42.0706750000000014
 20
12.4947929999999996
 10
42.0706750000000014
 20
11.7139410000000002
 10
41.376579999999997
 20
11.7139410000000002
 10
40.6824889999999968
 20
11.7139410000000002
 10
40.6824889999999968
 20
12.4947929999999996
 10
40.6824889999999968
 20
12.4947929999999996
  0
LWPOLYLINE
  5
60
  8
Engrave
 62
7
370
-1
  6
ByLayer
100
AcDbEntity
100
AcDbPolyline
 90
10
 70
0
 10
42.2441960000000023
 20
14.0564979999999995
 10
42.2441960000000023
 20
14.8373589999999993
 10
42.9382909999999995
 20
14.8373589999999993
 10
43.6323819999999998
 20
14.8373589999999993
 10
43.6323819999999998
 20
14.0564979999999995
 10
43.6323819999999998
 20
13.2756460000000001
 10
42.9382909999999995
 20
13.2756460000000001
 10
42.2441960000000023
 20
13.2756460000000001
 10
42.2441960000000023
 20
14.0564979999999995
 10
42.2441960000000023
 20
14.0564979999999995
  0
LWPOLYLINE
  5
61
  8
Engrave
 62
7
370
-1
  6
ByLayer
100
AcDbEntity
100
AcDbPolyline
 90
10
 70
0
 10
32.7004230000000007
 20
14.0564979999999995
 10
32.7004230000000007
 20
14.8373589999999993
 10
33.4812780000000032
 20
14.8373589999999993
 10
34.2621329999999986
 20
14.8373589999999993
 10
34.2621329999999986
 20
14.0564979999999995
 10
34.2621329999999986
 20
13.2756460000000001
 10
33.4812780000000032
 20
13.2756460000000001
 10
32.7004230000000007
 20
13.2756460000000001
 10
32.7004230000000007
 20
14.0564979999999995
 10
32.7004230000000007
 20
14.0564979999999995
  0
LWPOLYLINE
  5
62
  8
Engrave
 62
7
370
-1
  6
ByLayer
100
AcDbEntity
100
AcDbPolyline
 90
10
 70
0
 10
37.3855489999999975
 20
4.5127309999999996
 10
37.3855489999999975
 20
5.2935829999999999
 10
38.1664010000000005
 20
5.2935829999999999
 10
38.9472570000000005
 20
5.2935829999999999
 10
38.9472570000000005
 20
4.5127309999999996
 10
38.9472570000000005
 20
3.731878
 10
38.1664010000000005
 20
3.731878
 10
37.3855489999999975
 20
3.731878
 10
37.3855489999999975
 20
4.5127309999999996
 10
37.3855489999999975
 20
4.5127309999999996
  0
LWPOLYLINE
  5
63
  8
Engrave
 62
7
370
-1
  6
ByLayer
100
AcDbEntity
100
AcDbPolyline
 90
22
 70
0
 10
29.5770049999999998
 20
4.5127309999999996
 10
29.5770049999999998
 20
5.2935829999999999
 10
30.3578599999999987
 20
5.2935829999999999
 10
31.1387150000000013
 20
5.2935829999999999
 10
31.1387150000000013
 20
6.0744350000000003
 10
31.1387150000000013
 20
6.8552879999999998
 10
32.7004230000000007
 20
6.8552879999999998
 10
34.2621329999999986
 20
6.8552879999999998
 10
34.2621329999999986
 20
7.6361400000000001
 10
34.2621329999999986
 20
8.4169929999999997
 10
35.8238410000000016
 20
8.4169929999999997
 10
37.3855489999999975
 20
8.4169929999999997
 10
37.3855489999999975
 20
6.942043
 10
37.3855489999999975
 20
5.4670930000000002
 10
35.0429859999999991
 20
5.4670930000000002
 10
32.7004230000000007
 20
5.4670930000000002
 10
32.7004230000000007
 20
4.5994859999999997
 10
32.7004230000000007
 20
3.731878
 10
31.1387150000000013
 20
3.731878
 10
29.5770049999999998
 20
3.731878
 10
29.5770049999999998
 20
4.5127309999999996
 10
29.5770049999999998
 20
4.5127309999999996
  0
LWPOLYLINE
  5
64
  8
Engrave
 62
7
370
-1
  6
ByLayer
100
AcDbEntity
100
AcDbPolyline
 90
18
 70
0
 10
42.2441960000000023
 20
4.5994859999999997
 10
42.2441960000000023
 20
5.4670930000000002
 10
40.5957280000000011
 20
5.4670930000000002
 10
38.9472570000000005
 20
5.4670930000000002
 10
38.9472570000000005
 20
6.942043
 10
38.9472570000000005
 20
8.4169929999999997
 10
39.8148729999999986
 20
8.4169929999999997
 10
40.6824889999999968
 20
8.4169929999999997
 10
40.6824889999999968
 20
9.1978449999999992
 10
40.6824889999999968
 20
9.9786979999999996
 10
42.157435999999997
 20
9.9786979999999996
 10
43.6323819999999998
 20
9.9786979999999996
 10
43.6323819999999998
 20
6.8552879999999998
 10
43.6323819999999998
 20
3.731878
 10
42.9382909999999995
 20
3.731878
 10
42.2441960000000023
 20
3.731878
 10
42.2441960000000023
 20
4.5994859999999997
 10
42.2441960000000023
 20
4.5994859999999997
  0
LWPOLYLINE
  5
65
  8
Engrave
 62
7
370
-1
  6
ByLayer
100
AcDbEntity
100
AcDbPolyline
 90
10
 70
0
 10
13.439349
 20
20.3033380000000001
 10
13.439349
 20
21.0841929999999991
 10
14.2202040000000007
 20
21.0841929999999991
 10
15.0010589999999997
 20
21.0841929999999991
 10
15.0010589999999997
 20
20.3033380000000001
 10
15.0010589999999997
 20
19.5224820000000001
 10
14.2202040000000007
 20
19.5224820000000001
 10
13.439349
 20
19.5224820000000001
 10
13.439349
 20
20.3033380000000001
 10
13.439349
 20
20.3033380000000001
  0
LWPOLYLINE
  5
66
  8
Engrave
 62
7
370
-1
  6
ByLayer
100
AcDbEntity
100
AcDbPolyline
 90
10
 70
0
 10
5.6308040000000004
 20
17.9607750000000017
 10
5.6308040000000004
 20
19.5224820000000001
 10
6.3248990000000003
 20
19.5224820000000001
 10
7.0189909999999998
 20
19.5224820000000001
 10
7.0189909999999998
 20
17.9607750000000017
 10
7.0189909999999998
 20
16.3990669999999987
 10
6.3248990000000003
 20
16.3990669999999987
 10
5.6308040000000004
 20
16.3990669999999987
 10
5.6308040000000004
 20
17.9607750000000017
 10
5.6308040000000004
 20
17.9607750000000017
  0
LWPOLYLINE
  5
67
  8
Engrave
 62
7
370
-1
  6
ByLayer
100
AcDbEntity
100
AcDbPolyline
 90
10
 70
0
 10
13.439349
 20
26.8972200000000008
 10
13.439349
 20
27.6780720000000002
 10
14.2202040000000007
 20
27.6780720000000002
 10
15.0010589999999997
 20
27.6780720000000002
 10
15.0010589999999997
 20
26.8972200000000008
 10
15.0010589999999997
 20
26.1163670000000003
 10
14.2202040000000007
 20
26.1163670000000003
 10
13.439349
 20
26.1163670000000003
 10
13.439349
 20
26.8972200000000008
 10
13.439349
 20
26.8972200000000008
  0
LWPOLYLINE
  5
68
  8
Engrave
 62
7
370
-1
  6
ByLayer
100
AcDbEntity
100
AcDbPolyline
 90
10
 70
0
 10
15.0010589999999997
 20
28.4589280000000002
 10
15.0010589999999997
 20
29.2397829999999992
 10
15.7819120000000002
 20
29.2397829999999992
 10
16.5627640000000014
 20
29.2397829999999992
 10
16.5627640000000014
 20
28.4589280000000002
 10
16.5627640000000014
 20
27.6780720000000002
 10
15.7819120000000002
 20
27.6780720000000002
 10
15.0010589999999997
 20
27.6780720000000002
 10
15.0010589999999997
 20
28.4589280000000002
 10
15.0010589999999997
 20
28.4589280000000002
  0
LWPOLYLINE
  5
69
  8
Engrave
 62
7
370
-1
  6
ByLayer
100
AcDbEntity
100
AcDbPolyline
 90
10
 70
0
 10
13.439349
 20
30.1073990000000009
 10
13.439349
 20
30.8014909999999986
 10
14.2202040000000007
 20
30.8014909999999986
 10
15.0010589999999997
 20
30.8014909999999986
 10
15.0010589999999997
 20
30.1073990000000009
 10
15.0010589999999997
 20
29.4133040000000001
 10
14.2202040000000007
 20
29.4133040000000001
 10
13.439349
 20
29.4133040000000001
 10
13.439349
 20
30.1073990000000009
 10
13.439349
 20
30.1073990000000009
  0
LWPOLYLINE
  5
6A
  8
Engrave
 62
7
370
-1
  6
ByLayer
100
AcDbEntity
100
AcDbPolyline
 90
18
 70
0
 10
10.3159299999999998
 20
28.5456879999999984
 10
10.3159299999999998
 20
29.4133040000000001
 10
9.5350780000000004
 20
29.4133040000000001
 10
8.7542229999999996
 20
29.4133040000000001
 10
8.7542229999999996
 20
30.1073990000000009
 10
8.7542229999999996
 20
30.8014909999999986
 10
10.3159299999999998
 20
30.8014909999999986
 10
11.8776410000000006
 20
30.8014909999999986
 10
11.8776410000000006
 20
30.0206349999999986
 10
11.8776410000000006
 20
29.2397829999999992
 10
12.6584959999999995
 20
29.2397829999999992
 10
13.439349
 20
29.2397829999999992
 10
13.439349
 20
28.4589280000000002
 10
13.439349
 20
27.6780720000000002
 10
11.8776410000000006
 20
27.6780720000000002
 10
10.3159299999999998
 20
27.6780720000000002
 10
10.3159299999999998
 20
28.5456879999999984
 10
10.3159299999999998
 20
28.5456879999999984
  0
LWPOLYLINE
  5
6B
  8
Engrave
 62
7
370
-1
  6
ByLayer
100
AcDbEntity
100
AcDbPolyline
 90
10
 70
0
 10
16.7362910000000014
 20
42.6878269999999986
 10
16.7362910000000014
 20
43.4686820000000012
 10
17.4303799999999995
 20
43.4686820000000012
 10
18.1244750000000003
 20
43.4686820000000012
 10
18.1244750000000003
 20
42.6878269999999986
 10
18.1244750000000003
 20
41.9069750000000028
 10
17.4303799999999995
 20
41.9069750000000028
 10
16.7362910000000014
 20
41.9069750000000028
 10
16.7362910000000014
 20
42.6878269999999986
 10
16.7362910000000014
 20
42.6878269999999986
  0
LWPOLYLINE
  5
6C
  8
Engrave
 62
7
370
-1
  6
ByLayer
100
AcDbEntity
100
AcDbPolyline
 90
14
 70
0
 10
19.8597070000000002
 20
39.5644139999999993
 10
19.8597070000000002
 20
40.3452669999999998
 10
19.0788510000000002
 20
40.3452669999999998
 10
18.2979990000000008
 20
40.3452669999999998
 10
18.2979990000000008
 20
41.1261190000000028
 10
18.2979990000000008
 20
41.9069750000000028
 10
19.7729430000000015
 20
41.9069750000000028
 10
21.2478930000000013
 20
41.9069750000000028
 10
21.2478930000000013
 20
40.3452669999999998
 10
21.2478930000000013
 20
38.7835589999999968
 10
20.5537980000000005
 20
38.7835589999999968
 10
19.8597070000000002
 20
38.7835589999999968
 10
19.8597070000000002
 20
39.5644139999999993
 10
19.8597070000000002
 20
39.5644139999999993
  0
LWPOLYLINE
  5
6D
  8
Engrave
 62
7
370
-1
  6
ByLayer
100
AcDbEntity
100
AcDbPolyline
 90
10
 70
0
 10
21.4214139999999986
 20
42.6878269999999986
 10
21.4214139999999986
 20
43.4686820000000012
 10
23.0698860000000003
 20
43.4686820000000012
 10
24.718354999999999
 20
43.4686820000000012
 10
24.718354999999999
 20
42.6878269999999986
 10
24.718354999999999
 20
41.9069750000000028
 10
23.0698860000000003
 20
41.9069750000000028
 10
21.4214139999999986
 20
41.9069750000000028
 10
21.4214139999999986
 20
42.6878269999999986
 10
21.4214139999999986
 20
42.6878269999999986
  0
LWPOLYLINE
  5
6E
  8
Engrave
 62
7
370
-1
  6
ByLayer
100
AcDbEntity
100
AcDbPolyline
 90
10
 70
0
 10
29.5770049999999998
 20
41.9069750000000028
 10
29.5770049999999998
 20
43.4686820000000012
 10
30.2710989999999995
 20
43.4686820000000012
 10
30.9651910000000008
 20
43.4686820000000012
 10
30.9651910000000008
 20
41.9069750000000028
 10
30.9651910000000008
 20
40.3452669999999998
 10
30.2710989999999995
 20
40.3452669999999998
 10
29.5770049999999998
 20
40.3452669999999998
 10
29.5770049999999998
 20
41.9069750000000028
 10
29.5770049999999998
 20
41.9069750000000028
  0
LWPOLYLINE
  5
6F
  8
Engrave
 62
7
370
-1
  6
ByLayer
100
AcDbEntity
100
AcDbPolyline
 90
10
 70
0
 10
29.5770049999999998
 20
37.2218489999999989
 10
29.5770049999999998
 20
38.7835589999999968
 10
30.2710989999999995
 20
38.7835589999999968
 10
30.9651910000000008
 20
38.7835589999999968
 10
30.9651910000000008
 20
37.2218489999999989
 10
30.9651910000000008
 20
35.660141000000003
 10
30.2710989999999995
 20
35.660141000000003
 10
29.5770049999999998
 20
35.660141000000003
 10
29.5770049999999998
 20
37.2218489999999989
 10
29.5770049999999998
 20
37.2218489999999989
  0
LWPOLYLINE
  5
70
  8
Engrave
 62
7
370
-1
  6
ByLayer
100
AcDbEntity
100
AcDbPolyline
 90
10
 70
0
 10
32.7004230000000007
 20
30.1073990000000009
 10
32.7004230000000007
 20
30.8014909999999986
 10
33.4812780000000032
 20
30.8014909999999986
 10
34.2621329999999986
 20
30.8014909999999986
 10
34.2621329999999986
 20
30.1073990000000009
 10
34.2621329999999986
 20
29.4133040000000001
 10
33.4812780000000032
 20
29.4133040000000001
 10
32.7004230000000007
 20
29.4133040000000001
 10
32.7004230000000007
 20
30.1073990000000009
 10
32.7004230000000007
 20
30.1073990000000009
  0
LWPOLYLINE
  5
71
  8
Engrave
 62
7
370
-1
  6
ByLayer
100
AcDbEntity
100
AcDbPolyline
 90
10
 70
0
 10
32.7004230000000007
 20
23.6870410000000007
 10
32.7004230000000007
 20
24.5546569999999988
 10
34.2621329999999986
 20
24.5546569999999988
 10
35.8238410000000016
 20
24.5546569999999988
 10
35.8238410000000016
 20
23.6870410000000007
 10
35.8238410000000016
 20
22.819424999999999
 10
34.2621329999999986
 20
22.819424999999999
 10
32.7004230000000007
 20
22.819424999999999
 10
32.7004230000000007
 20
23.6870410000000007
 10
32.7004230000000007
 20
23.6870410000000007
  0
LWPOLYLINE
  5
72
  8
Engrave
 62
7
370
-1
  6
ByLayer
100
AcDbEntity
100
AcDbPolyline
 90
10
 70
0
 10
35.8238410000000016
 20
21.9518090000000008
 10
35.8238410000000016
 20
22.6459030000000006
 10
36.6046940000000021
 20
22.6459030000000006
 10
37.3855489999999975
 20
22.6459030000000006
 10
37.3855489999999975
 20
21.9518090000000008
 10
37.3855489999999975
 20
21.2577169999999995
 10
36.6046940000000021
 20
21.2577169999999995
 10
35.8238410000000016
 20
21.2577169999999995
 10
35.8238410000000016
 20
21.9518090000000008
 10
35.8238410000000016
 20
21.9518090000000008
  0
LWPOLYLINE
  5
73
  8
Engrave
 62
7
370
-1
  6
ByLayer
100
AcDbEntity
100
AcDbPolyline
 90
38
 70
0
 10
40.6824889999999968
 20
15.6182119999999998
 10
40.6824889999999968
 20
16.3990669999999987
 10
39.8148729999999986
 20
16.3990669999999987
 10
38.9472570000000005
 20
16.3990669999999987
 10
38.9472570000000005
 20
17.9607750000000017
 10
38.9472570000000005
 20
19.5224820000000001
 10
38.1664010000000005
 20
19.5224820000000001
 10
37.3855489999999975
 20
19.5224820000000001
 10
37.3855489999999975
 20
20.3033380000000001
 10
37.3855489999999975
 20
21.0841929999999991
 10
39.0340169999999986
 20
21.0841929999999991
 10
40.6824889999999968
 20
21.0841929999999991
 10
40.6824889999999968
 20
21.8650480000000016
 10
40.6824889999999968
 20
22.6459030000000006
 10
41.376579999999997
 20
22.6459030000000006
 10
42.0706750000000014
 20
22.6459030000000006
 10
42.0706750000000014
 20
21.8650480000000016
 10
42.0706750000000014
 20
21.0841929999999991
 10
42.8515299999999968
 20
21.0841929999999991
 10
43.6323819999999998
 20
21.0841929999999991
 10
43.6323819999999998
 20
19.5224820000000001
 10
43.6323819999999998
 20
17.9607750000000017
 10
42.9382909999999995
 20
17.9607750000000017
 10
42.2441960000000023
 20
17.9607750000000017
 10
42.2441960000000023
 20
18.7416270000000011
 10
42.2441960000000023
 20
19.5224820000000001
 10
41.376579999999997
 20
19.5224820000000001
 10
40.5089669999999984
 20
19.5224820000000001
 10
40.5089669999999984
 20
18.7416270000000011
 10
40.5089669999999984
 20
17.9607750000000017
 10
41.2898190000000014
 20
17.9607750000000017
 10
42.0706750000000014
 20
17.9607750000000017
 10
42.0706750000000014
 20
16.3990669999999987
 10
42.0706750000000014
 20
14.8373589999999993
 10
41.376579999999997
 20
14.8373589999999993
 10
40.6824889999999968
 20
14.8373589999999993
 10
40.6824889999999968
 20
15.6182119999999998
 10
40.6824889999999968
 20
15.6182119999999998
  0
LWPOLYLINE
  5
74
  8
Engrave
 62
7
370
-1
  6
ByLayer
100
AcDbEntity
100
AcDbPolyline
 90
30
 70
0
 10
42.2441960000000023
 20
23.6870410000000007
 10
42.2441960000000023
 20
24.5546569999999988
 10
39.8148729999999986
 20
24.5546569999999988
 10
37.3855489999999975
 20
24.5546569999999988
 10
37.3855489999999975
 20
25.3355120000000014
 10
37.3855489999999975
 20
26.1163670000000003
 10
35.8238410000000016
 20
26.1163670000000003
 10
34.2621329999999986
 20
26.1163670000000003
 10
34.2621329999999986
 20
27.6780720000000002
 10
34.2621329999999986
 20
29.2397829999999992
 10
38.1664010000000005
 20
29.2397829999999992
 10
42.0706750000000014
 20
29.2397829999999992
 10
42.0706750000000014
 20
28.4589280000000002
 10
42.0706750000000014
 20
27.6780720000000002
 10
40.5089669999999984
 20
27.6780720000000002
 10
38.9472570000000005
 20
27.6780720000000002
 10
38.9472570000000005
 20
26.8972200000000008
 10
38.9472570000000005
 20
26.1163670000000003
 10
40.5957280000000011
 20
26.1163670000000003
 10
42.2441960000000023
 20
26.1163670000000003
 10
42.2441960000000023
 20
26.8972200000000008
 10
42.2441960000000023
 20
27.6780720000000002
 10
42.9382909999999995
 20
27.6780720000000002
 10
43.6323819999999998
 20
27.6780720000000002
 10
43.6323819999999998
 20
25.2487509999999986
 10
43.6323819999999998
 20
22.819424999999999
 10
42.9382909999999995
 20
22.819424999999999
 10
42.2441960000000023
 20
22.819424999999999
 10
42.2441960000000023
 20
23.6870410000000007
 10
42.2441960000000023
 20
23.6870410000000007
  0
LWPOLYLINE
  5
75
  8
Engrave
 62
7
370
-1
  6
ByLayer
100
AcDbEntity
100
AcDbPolyline
 90
10
 70
0
 10
32.7004230000000007
 20
38.0027040000000014
 10
32.7004230000000007
 20
43.4686820000000012
 10
38.1664010000000005
 20
43.4686820000000012
 10
43.6323819999999998
 20
43.4686820000000012
 10
43.6323819999999998
 20
38.0027040000000014
 10
43.6323819999999998
 20
32.5367230000000021
 10
38.1664010000000005
 20
32.5367230000000021
 10
32.7004230000000007
 20
32.5367230000000021
 10
32.7004230000000007
 20
38.0027040000000014
 10
32.7004230000000007
 20
38.0027040000000014
  0
LWPOLYLINE
  5
76
  8
Engrave
 62
7
370
-1
  6
ByLayer
100
AcDbEntity
100
AcDbPolyline
 90
10
 70
0
 10
42.2441960000000023
 20
37.9159429999999986
 10
42.2441960000000023
 20
41.9069750000000028
 10
38.2531650000000027
 20
41.9069750000000028
 10
34.2621329999999986
 20
41.9069750000000028
 10
34.2621329999999986
 20
37.9159429999999986
 10
34.2621329999999986
 20
33.9249089999999995
 10
38.2531650000000027
 20
33.9249089999999995
 10
42.2441960000000023
 20
33.9249089999999995
 10
42.2441960000000023
 20
37.9159429999999986
 10
42.2441960000000023
 20
37.9159429999999986
  0
LWPOLYLINE
  5
77
  8
Engrave
 62
7
370
-1
  6
ByLayer
100
AcDbEntity
100
AcDbPolyline
 90
10
 70
0
 10
35.8238410000000016
 20
38.0027040000000014
 10
35.8238410000000016
 20
40.3452669999999998
 10
38.1664010000000005
 20
40.3452669999999998
 10
40.5089669999999984
 20
40.3452669999999998
 10
40.5089669999999984
 20
38.0027040000000014
 10
40.5089669999999984
 20
35.660141000000003
 10
38.1664010000000005
 20
35.660141000000003
 10
35.8238410000000016
 20
35.660141000000003
 10
35.8238410000000016
 20
38.0027040000000014
 10
35.8238410000000016
 20
38.0027040000000014
  0
LWPOLYLINE
  5
78
  8
Engrave
 62
7
370
-1
  6
ByLayer
100
AcDbEntity
100
AcDbPolyline
 90
30
 70
0
 10
22.9831250000000011
 20
34.0116700000000023
 10
22.9831250000000011
 20
35.4866170000000025
 10
23.9375019999999985
 20
35.4866170000000025
 10
24.8918789999999994
 20
35.4866170000000025
 10
24.8918789999999994
 20
36.3542330000000007
 10
24.8918789999999994
 20
37.2218489999999989
 10
23.9375019999999985
 20
37.2218489999999989
 10
22.9831250000000011
 20
37.2218489999999989
 10
22.9831250000000011
 20
38.7835589999999968
 10
22.9831250000000011
 20
40.3452669999999998
 10
24.6315939999999998
 20
40.3452669999999998
 10
26.2800650000000005
 20
40.3452669999999998
 10
26.2800650000000005
 20
38.7835589999999968
 10
26.2800650000000005
 20
37.2218489999999989
 10
27.0609210000000004
 20
37.2218489999999989
 10
27.8417729999999999
 20
37.2218489999999989
 10
27.8417729999999999
 20
34.8792860000000005
 10
27.8417729999999999
 20
32.5367230000000021
 10
27.1476809999999986
 20
32.5367230000000021
 10
26.4535869999999989
 20
32.5367230000000021
 10
26.4535869999999989
 20
33.3175779999999975
 10
26.4535869999999989
 20
34.0984300000000005
 10
25.5859710000000007
 20
34.0984300000000005
 10
24.718354999999999
 20
34.0984300000000005
 10
24.718354999999999
 20
33.3175779999999975
 10
24.718354999999999
 20
32.5367230000000021
 10
23.8507409999999993
 20
32.5367230000000021
 10
22.9831250000000011
 20
32.5367230000000021
 10
22.9831250000000011
 20
34.0116700000000023
 10
22.9831250000000011
 20
34.0116700000000023
  0
LWPOLYLINE
  5
79
  8
Engrave
 62
7
370
-1
  6
ByLayer
100
AcDbEntity
100
AcDbPolyline
 90
10
 70
0
 10
21.4214139999999986
 20
22.9061880000000002
 10
21.4214139999999986
 20
24.5546569999999988
 10
22.1155089999999994
 20
24.5546569999999988
 10
22.8095999999999997
 20
24.5546569999999988
 10
22.8095999999999997
 20
22.9061880000000002
 10
22.8095999999999997
 20
21.2577169999999995
 10
22.1155089999999994
 20
21.2577169999999995
 10
21.4214139999999986
 20
21.2577169999999995
 10
21.4214139999999986
 20
22.9061880000000002
 10
21.4214139999999986
 20
22.9061880000000002
  0
LWPOLYLINE
  5
7A
  8
Engrave
 62
7
370
-1
  6
ByLayer
100
AcDbEntity
100
AcDbPolyline
 90
38
 70
0
 10
19.8597070000000002
 20
6.2479740000000001
 10
19.8597070000000002
 20
7.0288259999999996
 10
19.0788510000000002
 20
7.0288259999999996
 10
18.2979990000000008
 20
7.0288259999999996
 10
18.2979990000000008
 20
7.7228950000000003
 10
18.2979990000000008
 20
8.4169929999999997
 10
19.8597070000000002
 20
8.4169929999999997
 10
21.4214139999999986
 20
8.4169929999999997
 10
21.4214139999999986
 20
10.0654810000000001
 10
21.4214139999999986
 20
11.7139410000000002
 10
20.6405589999999997
 20
11.7139410000000002
 10
19.8597070000000002
 20
11.7139410000000002
 10
19.8597070000000002
 20
14.0564979999999995
 10
19.8597070000000002
 20
16.3990669999999987
 10
20.5537980000000005
 20
16.3990669999999987
 10
21.2478930000000013
 20
16.3990669999999987
 10
21.2478930000000013
 20
15.6182119999999998
 10
21.2478930000000013
 20
14.8373589999999993
 10
22.0287480000000002
 20
14.8373589999999993
 10
22.8095999999999997
 20
14.8373589999999993
 10
22.8095999999999997
 20
13.1888909999999999
 10
22.8095999999999997
 20
11.5404309999999999
 10
23.7639770000000006
 20
11.5404309999999999
 10
24.718354999999999
 20
11.5404309999999999
 10
24.718354999999999
 20
10.0654810000000001
 10
24.718354999999999
 20
8.5905310000000004
 10
23.7639770000000006
 20
8.5905310000000004
 10
22.8095999999999997
 20
8.5905310000000004
 10
22.8095999999999997
 20
7.809679
 10
22.8095999999999997
 20
7.0288259999999996
 10
22.0287480000000002
 20
7.0288259999999996
 10
21.2478930000000013
 20
7.0288259999999996
 10
21.2478930000000013
 20
6.2479740000000001
 10
21.2478930000000013
 20
5.4670930000000002
 10
20.5537980000000005
 20
5.4670930000000002
 10
19.8597070000000002
 20
5.4670930000000002
 10
19.8597070000000002
 20
6.2479740000000001
 10
19.8597070000000002
 20
6.2479740000000001
  0
LWPOLYLINE
  5
7B
  8
Engrave
 62
7
370
-1
  6
ByLayer
100
AcDbEntity
100
AcDbPolyline
 90
10
 70
0
 10
4.0690970000000002
 20
9.2846290000000007
 10
4.0690970000000002
 20
14.8373589999999993
 10
9.5350780000000004
 20
14.8373589999999993
 10
15.0010589999999997
 20
14.8373589999999993
 10
15.0010589999999997
 20
9.2846290000000007
 10
15.0010589999999997
 20
3.731878
 10
9.5350780000000004
 20
3.731878
 10
4.0690970000000002
 20
3.731878
 10
4.0690970000000002
 20
9.2846290000000007
 10
4.0690970000000002
 20
9.2846290000000007
  0
LWPOLYLINE
  5
7C
  8
Engrave
 62
7
370
-1
  6
ByLayer
100
AcDbEntity
100
AcDbPolyline
 90
10
 70
0
 10
13.439349
 20
9.2846290000000007
 10
13.439349
 20
13.2756460000000001
 10
9.4483169999999994
 20
13.2756460000000001
 10
5.4572830000000003
 20
13.2756460000000001
 10
5.4572830000000003
 20
9.2846290000000007
 10
5.4572830000000003
 20
5.2935829999999999
 10
9.4483169999999994
 20
5.2935829999999999
 10
13.439349
 20
5.2935829999999999
 10
13.439349
 20
9.2846290000000007
 10
13.439349
 20
9.2846290000000007
  0
LWPOLYLINE
  5
7D
  8
Engrave
 62
7
370
-1
  6
ByLayer
100
AcDbEntity
100
AcDbPolyline
 90
10
 70
0
 10
7.1925150000000002
 20
9.2846290000000007
 10
7.1925150000000002
 20
11.5404309999999999
 10
9.5350780000000004
 20
11.5404309999999999
 10
11.8776410000000006
 20
11.5404309999999999
 10
11.8776410000000006
 20
9.2846290000000007
 10
11.8776410000000006
 20
7.0288259999999996
 10
9.5350780000000004
 20
7.0288259999999996
 10
7.1925150000000002
 20
7.0288259999999996
 10
7.1925150000000002
 20
9.2846290000000007
 10
7.1925150000000002
 20
9.2846290000000007
  0
LWPOLYLINE
  5
7E
  8
Engrave
 62
7
370
-1
  6
ByLayer
100
AcDbEntity
100
AcDbPolyline
 90
34
 70
0
 10
16.7362910000000014
 20
15.6182119999999998
 10
16.7362910000000014
 20
16.3990669999999987
 10
14.3069649999999999
 20
16.3990669999999987
 10
11.8776410000000006
 20
16.3990669999999987
 10
11.8776410000000006
 20
17.1799220000000012
 10
11.8776410000000006
 20
17.9607750000000017
 10
11.0967859999999998
 20
17.9607750000000017
 10
10.3159299999999998
 20
17.9607750000000017
 10
10.3159299999999998
 20
17.1799220000000012
 10
10.3159299999999998
 20
16.3990669999999987
 10
9.5350780000000004
 20
16.3990669999999987
 10
8.7542229999999996
 20
16.3990669999999987
 10
8.7542229999999996
 20
18.7416270000000011
 10
8.7542229999999996
 20
21.0841929999999991
 10
10.3159299999999998
 20
21.0841929999999991
 10
11.8776410000000006
 20
21.0841929999999991
 10
11.8776410000000006
 20
20.3033380000000001
 10
11.8776410000000006
 20
19.5224820000000001
 10
12.6584959999999995
 20
19.5224820000000001
 10
13.439349
 20
19.5224820000000001
 10
13.439349
 20
18.7416270000000011
 10
13.439349
 20
17.9607750000000017
 10
14.2202040000000007
 20
17.9607750000000017
 10
15.0010589999999997
 20
17.9607750000000017
 10
15.0010589999999997
 20
18.7416270000000011
 10
15.0010589999999997
 20
19.5224820000000001
 10
16.5627640000000014
 20
19.5224820000000001
 10
18.1244750000000003
 20
19.5224820000000001
 10
18.1244750000000003
 20
17.1799220000000012
 10
18.1244750000000003
 20
14.8373589999999993
 10
17.4303799999999995
 20
14.8373589999999993
 10
16.7362910000000014
 20
14.8373589999999993
 10
16.7362910000000014
 20
15.6182119999999998
 10
16.7362910000000014
 20
15.6182119999999998
  0
LWPOLYLINE
  5
7F
  8
Engrave
 62
7
370
-1
  6
ByLayer
100
AcDbEntity
100
AcDbPolyline
 90
230
 70
0
 10
26.4535869999999989
 20
6.1611909999999996
 10
26.4535869999999989
 20
6.8552879999999998
 10
27.2344420000000014
 20
6.8552879999999998
 10
28.0152970000000003
 20
6.8552879999999998
 10
28.0152970000000003
 20
8.5037760000000002
 10
28.0152970000000003
 20
10.1522360000000003
 10
27.2344420000000014
 20
10.1522360000000003
 10
26.4535869999999989
 20
10.1522360000000003
 10
26.4535869999999989
 20
10.9330890000000007
 10
26.4535869999999989
 20
11.7139410000000002
 10
25.6727339999999984
 20
11.7139410000000002
 10
24.8918789999999994
 20
11.7139410000000002
 10
24.8918789999999994
 20
12.4947929999999996
 10
24.8918789999999994
 20
13.2756460000000001
 10
27.2344420000000014
 20
13.2756460000000001
 10
29.5770049999999998
 20
13.2756460000000001
 10
29.5770049999999998
 20
14.0564979999999995
 10
29.5770049999999998
 20
14.8373589999999993
 10
28.7961519999999993
 20
14.8373589999999993
 10
28.0152970000000003
 20
14.8373589999999993
 10
28.0152970000000003
 20
15.6182119999999998
 10
28.0152970000000003
 20
16.3990669999999987
 10
27.1476809999999986
 20
16.3990669999999987
 10
26.2800650000000005
 20
16.3990669999999987
 10
26.2800650000000005
 20
15.6182119999999998
 10
26.2800650000000005
 20
14.8373589999999993
 10
25.5859710000000007
 20
14.8373589999999993
 10
24.8918789999999994
 20
14.8373589999999993
 10
24.8918789999999994
 20
16.3990669999999987
 10
24.8918789999999994
 20
17.9607750000000017
 10
27.2344420000000014
 20
17.9607750000000017
 10
29.5770049999999998
 20
17.9607750000000017
 10
29.5770049999999998
 20
18.7416270000000011
 10
29.5770049999999998
 20
19.5224820000000001
 10
28.0152970000000003
 20
19.5224820000000001
 10
26.4535869999999989
 20
19.5224820000000001
 10
26.4535869999999989
 20
20.3900979999999983
 10
26.4535869999999989
 20
21.2577169999999995
 10
25.6727339999999984
 20
21.2577169999999995
 10
24.8918789999999994
 20
21.2577169999999995
 10
24.8918789999999994
 20
21.9518090000000008
 10
24.8918789999999994
 20
22.6459030000000006
 10
26.4535869999999989
 20
22.6459030000000006
 10
28.0152970000000003
 20
22.6459030000000006
 10
28.0152970000000003
 20
23.6002800000000015
 10
28.0152970000000003
 20
24.5546569999999988
 10
28.7961519999999993
 20
24.5546569999999988
 10
29.5770049999999998
 20
24.5546569999999988
 10
29.5770049999999998
 20
25.3355120000000014
 10
29.5770049999999998
 20
26.1163670000000003
 10
27.1476809999999986
 20
26.1163670000000003
 10
24.718354999999999
 20
26.1163670000000003
 10
24.718354999999999
 20
25.3355120000000014
 10
24.718354999999999
 20
24.5546569999999988
 10
23.8507409999999993
 20
24.5546569999999988
 10
22.9831250000000011
 20
24.5546569999999988
 10
22.9831250000000011
 20
25.3355120000000014
 10
22.9831250000000011
 20
26.1163670000000003
 10
22.1155089999999994
 20
26.1163670000000003
 10
21.2478930000000013
 20
26.1163670000000003
 10
21.2478930000000013
 20
25.3355120000000014
 10
21.2478930000000013
 20
24.5546569999999988
 10
20.4670370000000013
 20
24.5546569999999988
 10
19.6861819999999987
 20
24.5546569999999988
 10
19.6861819999999987
 20
23.6870410000000007
 10
19.6861819999999987
 20
22.819424999999999
 10
18.9920909999999985
 20
22.819424999999999
 10
18.2979990000000008
 20
22.819424999999999
 10
18.2979990000000008
 20
23.6870410000000007
 10
18.2979990000000008
 20
24.5546569999999988
 10
17.4303799999999995
 20
24.5546569999999988
 10
16.5627640000000014
 20
24.5546569999999988
 10
16.5627640000000014
 20
23.6870410000000007
 10
16.5627640000000014
 20
22.819424999999999
 10
11.7908799999999996
 20
22.819424999999999
 10
7.0189909999999998
 20
22.819424999999999
 10
7.0189909999999998
 20
22.0385719999999985
 10
7.0189909999999998
 20
21.2577169999999995
 10
6.3248990000000003
 20
21.2577169999999995
 10
5.6308040000000004
 20
21.2577169999999995
 10
5.6308040000000004
 20
22.0385719999999985
 10
5.6308040000000004
 20
22.819424999999999
 10
4.8499489999999996
 20
22.819424999999999
 10
4.0690970000000002
 20
22.819424999999999
 10
4.0690970000000002
 20
25.2487509999999986
 10
4.0690970000000002
 20
27.6780720000000002
 10
4.8499489999999996
 20
27.6780720000000002
 10
5.6308040000000004
 20
27.6780720000000002
 10
5.6308040000000004
 20
28.5456879999999984
 10
5.6308040000000004
 20
29.4133040000000001
 10
4.8499489999999996
 20
29.4133040000000001
 10
4.0690970000000002
 20
29.4133040000000001
 10
4.0690970000000002
 20
30.1073990000000009
 10
4.0690970000000002
 20
30.8014909999999986
 10
5.5440440000000004
 20
30.8014909999999986
 10
7.0189909999999998
 20
30.8014909999999986
 10
7.0189909999999998
 20
30.0206349999999986
 10
7.0189909999999998
 20
29.2397829999999992
 10
7.8866069999999997
 20
29.2397829999999992
 10
8.7542229999999996
 20
29.2397829999999992
 10
8.7542229999999996
 20
28.4589280000000002
 10
8.7542229999999996
 20
27.6780720000000002
 10
9.5350780000000004
 20
27.6780720000000002
 10
10.3159299999999998
 20
27.6780720000000002
 10
10.3159299999999998
 20
26.8972200000000008
 10
10.3159299999999998
 20
26.1163670000000003
 10
11.8776410000000006
 20
26.1163670000000003
 10
13.439349
 20
26.1163670000000003
 10
13.439349
 20
25.3355120000000014
 10
13.439349
 20
24.5546569999999988
 10
14.2202040000000007
 20
24.5546569999999988
 10
15.0010589999999997
 20
24.5546569999999988
 10
15.0010589999999997
 20
25.3355120000000014
 10
15.0010589999999997
 20
26.1163670000000003
 10
15.8686749999999996
 20
26.1163670000000003
 10
16.7362910000000014
 20
26.1163670000000003
 10
16.7362910000000014
 20
26.8972200000000008
 10
16.7362910000000014
 20
27.6780720000000002
 10
17.4303799999999995
 20
27.6780720000000002
 10
18.1244750000000003
 20
27.6780720000000002
 10
18.1244750000000003
 20
26.8972200000000008
 10
18.1244750000000003
 20
26.1163670000000003
 10
18.9920909999999985
 20
26.1163670000000003
 10
19.8597070000000002
 20
26.1163670000000003
 10
19.8597070000000002
 20
26.8972200000000008
 10
19.8597070000000002
 20
27.6780720000000002
 10
21.4214139999999986
 20
27.6780720000000002
 10
22.9831250000000011
 20
27.6780720000000002
 10
22.9831250000000011
 20
28.5456879999999984
 10
22.9831250000000011
 20
29.4133040000000001
 10
21.3346540000000005
 20
29.4133040000000001
 10
19.6861819999999987
 20
29.4133040000000001
 10
19.6861819999999987
 20
28.5456879999999984
 10
19.6861819999999987
 20
27.6780720000000002
 10
18.9920909999999985
 20
27.6780720000000002
 10
18.2979990000000008
 20
27.6780720000000002
 10
18.2979990000000008
 20
29.2397829999999992
 10
18.2979990000000008
 20
30.8014909999999986
 10
19.0788510000000002
 20
30.8014909999999986
 10
19.8597070000000002
 20
30.8014909999999986
 10
19.8597070000000002
 20
33.144053999999997
 10
19.8597070000000002
 20
35.4866170000000025
 10
20.5537980000000005
 20
35.4866170000000025
 10
21.2478930000000013
 20
35.4866170000000025
 10
21.2478930000000013
 20
33.9249089999999995
 10
21.2478930000000013
 20
32.3632009999999966
 10
22.0287480000000002
 20
32.3632009999999966
 10
22.8095999999999997
 20
32.3632009999999966
 10
22.8095999999999997
 20
31.5823460000000011
 10
22.8095999999999997
 20
30.8014909999999986
 10
23.7639770000000006
 20
30.8014909999999986
 10
24.718354999999999
 20
30.8014909999999986
 10
24.718354999999999
 20
29.2397829999999992
 10
24.718354999999999
 20
27.6780720000000002
 10
26.3668259999999997
 20
27.6780720000000002
 10
28.0152970000000003
 20
27.6780720000000002
 10
28.0152970000000003
 20
28.5456879999999984
 10
28.0152970000000003
 20
29.4133040000000001
 10
27.2344420000000014
 20
29.4133040000000001
 10
26.4535869999999989
 20
29.4133040000000001
 10
26.4535869999999989
 20
30.1073990000000009
 10
26.4535869999999989
 20
30.8014909999999986
 10
27.2344420000000014
 20
30.8014909999999986
 10
28.0152970000000003
 20
30.8014909999999986
 10
28.0152970000000003
 20
31.5823460000000011
 10
28.0152970000000003
 20
32.3632009999999966
 10
28.7093890000000016
 20
32.3632009999999966
 10
29.4034830000000014
 20
32.3632009999999966
 10
29.4034830000000014
 20
31.5823460000000011
 10
29.4034830000000014
 20
30.8014909999999986
 10
30.1843380000000003
 20
30.8014909999999986
 10
30.9651910000000008
 20
30.8014909999999986
 10
30.9651910000000008
 20
30.1073990000000009
 10
30.9651910000000008
 20
29.4133040000000001
 10
30.1843380000000003
 20
29.4133040000000001
 10
29.4034830000000014
 20
29.4133040000000001
 10
29.4034830000000014
 20
28.5456879999999984
 10
29.4034830000000014
 20
27.6780720000000002
 10
31.0519539999999985
 20
27.6780720000000002
 10
32.7004230000000007
 20
27.6780720000000002
 10
32.7004230000000007
 20
26.8972200000000008
 10
32.7004230000000007
 20
26.1163670000000003
 10
31.832806999999999
 20
26.1163670000000003
 10
30.9651910000000008
 20
26.1163670000000003
 10
30.9651910000000008
 20
23.6002800000000015
 10
30.9651910000000008
 20
21.0841929999999991
 10
32.6136619999999979
 20
21.0841929999999991
 10
34.2621329999999986
 20
21.0841929999999991
 10
34.2621329999999986
 20
20.3033380000000001
 10
34.2621329999999986
 20
19.5224820000000001
 10
35.0429859999999991
 20
19.5224820000000001
 10
35.8238410000000016
 20
19.5224820000000001
 10
35.8238410000000016
 20
18.7416270000000011
 10
35.8238410000000016
 20
17.9607750000000017
 10
36.6046940000000021
 20
17.9607750000000017
 10
37.3855489999999975
 20
17.9607750000000017
 10
37.3855489999999975
 20
16.3990669999999987
 10
37.3855489999999975
 20
14.8373589999999993
 10
38.1664010000000005
 20
14.8373589999999993
 10
38.9472570000000005
 20
14.8373589999999993
 10
38.9472570000000005
 20
14.0564979999999995
 10
38.9472570000000005
 20
13.2756460000000001
 10
38.1664010000000005
 20
13.2756460000000001
 10
37.3855489999999975
 20
13.2756460000000001
 10
37.3855489999999975
 20
12.4080379999999995
 10
37.3855489999999975
 20
11.5404309999999999
 10
38.1664010000000005
 20
11.5404309999999999
 10
38.9472570000000005
 20
11.5404309999999999
 10
38.9472570000000005
 20
10.0654810000000001
 10
38.9472570000000005
 20
8.5905310000000004
 10
38.1664010000000005
 20
8.5905310000000004
 10
37.3855489999999975
 20
8.5905310000000004
 10
37.3855489999999975
 20
9.3713840000000008
 10
37.3855489999999975
 20
10.1522360000000003
 10
35.8238410000000016
 20
10.1522360000000003
 10
34.2621329999999986
 20
10.1522360000000003
 10
34.2621329999999986
 20
9.3713840000000008
 10
34.2621329999999986
 20
8.5905310000000004
 10
32.7004230000000007
 20
8.5905310000000004
 10
31.1387150000000013
 20
8.5905310000000004
 10
31.1387150000000013
 20
9.3713840000000008
 10
31.1387150000000013
 20
10.1522360000000003
 10
30.2710989999999995
 20
10.1522360000000003
 10
29.4034830000000014
 20
10.1522360000000003
 10
29.4034830000000014
 20
7.809679
 10
29.4034830000000014
 20
5.4670930000000002
 10
27.9285369999999986
 20
5.4670930000000002
 10
26.4535869999999989
 20
5.4670930000000002
 10
26.4535869999999989
 20
6.1611909999999996
 10
26.4535869999999989
 20
6.1611909999999996
  0
LWPOLYLINE
  5
80
  8
Engrave
 62
7
370
-1
  6
ByLayer
100
AcDbEntity
100
AcDbPolyline
 90
10
 70
0
 10
35.8238410000000016
 20
13.9697429999999994
 10
35.8238410000000016
 20
16.3990669999999987
 10
33.3945170000000005
 20
16.3990669999999987
 10
30.9651910000000008
 20
16.3990669999999987
 10
30.9651910000000008
 20
13.9697429999999994
 10
30.9651910000000008
 20
11.5404309999999999
 10
33.3945170000000005
 20
11.5404309999999999
 10
35.8238410000000016
 20
11.5404309999999999
 10
35.8238410000000016
 20
13.9697429999999994
 10
35.8238410000000016
 20
13.9697429999999994
  0
LWPOLYLINE
  5
81
  8
Engrave
 62
7
370
-1
  6
ByLayer
100
AcDbEntity
100
AcDbPolyline
 90
10
 70
0
 10
10.3159299999999998
 20
25.3355120000000014
 10
10.3159299999999998
 20
26.1163670000000003
 10
8.6674620000000004
 20
26.1163670000000003
 10
7.0189909999999998
 20
26.1163670000000003
 10
7.0189909999999998
 20
25.3355120000000014
 10
7.0189909999999998
 20
24.5546569999999988
 10
8.6674620000000004
 20
24.5546569999999988
 10
10.3159299999999998
 20
24.5546569999999988
 10
10.3159299999999998
 20
25.3355120000000014
 10
10.3159299999999998
 20
25.3355120000000014
  0
LWPOLYLINE
  5
82
  8
Engrave
 62
7
370
-1
  6
ByLayer
100
AcDbEntity
100
AcDbPolyline
 90
10
 70
0
 10
7.1925150000000002
 20
38.0027040000000014
 10
7.1925150000000002
 20
40.3452669999999998
 10
9.5350780000000004
 20
40.3452669999999998
 10
11.8776410000000006
 20
40.3452669999999998
 10
11.8776410000000006
 20
38.0027040000000014
 10
11.8776410000000006
 20
35.660141000000003
 10
9.5350780000000004
 20
35.660141000000003
 10
7.1925150000000002
 20
35.660141000000003
 10
7.1925150000000002
 20
38.0027040000000014
 10
7.1925150000000002
 20
38.0027040000000014
  0
LWPOLYLINE
  5
83
  8
Engrave
 62
7
370
-1
  6
ByLayer
100
AcDbEntity
100
AcDbPolyline
 90
10
 70
0
 10
4.0690970000000002
 20
38.0027040000000014
 10
4.0690970000000002
 20
43.4686820000000012
 10
9.5350780000000004
 20
43.4686820000000012
 10
15.0010589999999997
 20
43.4686820000000012
 10
15.0010589999999997
 20
38.0027040000000014
 10
15.0010589999999997
 20
32.5367230000000021
 10
9.5350780000000004
 20
32.5367230000000021
 10
4.0690970000000002
 20
32.5367230000000021
 10
4.0690970000000002
 20
38.0027040000000014
 10
4.0690970000000002
 20
38.0027040000000014
  0
LWPOLYLINE
  5
84
  8
Engrave
 62
7
370
-1
  6
ByLayer
100
AcDbEntity
100
AcDbPolyline
 90
10
 70
0
 10
13.439349
 20
37.9159429999999986
 10
13.439349
 20
41.9069750000000028
 10
9.4483169999999994
 20
41.9069750000000028
 10
5.4572830000000003
 20
41.9069750000000028
 10
5.4572830000000003
 20
37.9159429999999986
 10
5.4572830000000003
 20
33.9249089999999995
 10
9.4483169999999994
 20
33.9249089999999995
 10
13.439349
 20
33.9249089999999995
 10
13.439349
 20
37.9159429999999986
 10
13.439349
 20
37.9159429999999986
  0
LINE
  5
85
100
AcDbEntity
100
AcDbLine
  8
Cut
 62
256
370
-1
  6
ByLayer
 10
0.0
 20
50.0
 30
0.0
 11
50.0
 21
50.0
 31
0.0
  0
LINE
  5
86
100
AcDbEntity
100
AcDbLine
  8
Cut
 62
256
370
-1
  6
ByLayer
 10
50.0
 20
50.0
 30
0.0
 11
50.0
 21
0.0
 31
0.0
  0
LINE
  5
87
100
AcDbEntity
100
AcDbLine
  8
Cut
 62
256
370
-1
  6
ByLayer
 10
50.0
 20
0.0
 30
0.0
 11
0.0
 21
0.0
 31
0.0
  0
LINE
  5
88
100
AcDbEntity
100
AcDbLine
  8
Cut
 62
256
370
-1
  6
ByLayer
 10
0.0
 20
0.0
 30
0.0
 11
0.0
 21
50.0
 31
0.0
  0
ENDSEC
  0
SECTION
  2
OBJECTS
  0
DICTIONARY
  5
C
100
AcDbDictionary
280
0
281
1
  3
ACAD_GROUP
350
D
  3
ACAD_LAYOUT
350
1A
  3
ACAD_MLINESTYLE
350
17
  3
ACAD_PLOTSETTINGS
350
19
  3
ACAD_PLOTSTYLENAME
350
E
  3
AcDbVariableDictionary
350
89
  0
DICTIONARY
  5
D
100
AcDbDictionary
280
0
281
1
  0
ACDBDICTIONARYWDFLT
  5
E
100
AcDbDictionary
281
1
  3
Normal
350
F
100
AcDbDictionaryWithDefault
340
F
  0
ACDBPLACEHOLDER
  5
F
  0
DICTIONARY
  5
17
100
AcDbDictionary
280
0
281
1
  3
Standard
350
18
  0
MLINESTYLE
  5
18
100
AcDbMlineStyle
  2
STANDARD
 70
0
  3

 62
256
 51
90.0
 52
90.0
 71
2
 49
0.5
 62
256
  6
BYLAYER
 49
-0.5
 62
256
  6
BYLAYER
  0
DICTIONARY
  5
19
100
AcDbDictionary
280
0
281
1
  0
DICTIONARY
  5
1A
100
AcDbDictionary
281
1
  3
Layout1
350
1E
  3
Layout2
350
26
  3
Model
350
22
  0
LAYOUT
  5
1E
100
AcDbPlotSettings
  1

  2
C:\Program Files\AutoCAD 2002\plotters\DWF ePlot (optimized for plotting).pc3
  4

  6

 40
0.0
 41
0.0
 42
0.0
 43
0.0
 44
0.0
 45
0.0
 46
0.0
 47
0.0
 48
0.0
 49
0.0
140
0.0
141
0.0
142
1.0
143
1.0
 70
688
 72
0
 73
0
 74
5
  7

 75
16
147
1.0
148
0.0
149
0.0
100
AcDbLayout
  1
Layout1
 70
1
 71
1
 10
0.0
 20
0.0
 11
420.0
 21
297.0
 12
0.0
 22
0.0
 32
0.0
 14
100000000000000000000.0
 24
100000000000000000000.0
 34
100000000000000000000.0
 15
-100000000000000000000.0
 25
-100000000000000000000.0
 35
-100000000000000000000.0
146
0.0
 13
0.0
 23
0.0
 33
0.0
 16
1.0
 26
0.0
 36
0.0
 17
0.0
 27
1.0
 37
0.0
 76
0
330
1B
  0
LAYOUT
  5
22
100
AcDbPlotSettings
  1

  2
C:\Program Files\AutoCAD 2002\plotters\DWF ePlot (optimized for plotting).pc3
  4

  6

 40
0.0
 41
0.0
 42
0.0
 43
0.0
 44
0.0
 45
0.0
 46
0.0
 47
0.0
 48
0.0
 49
0.0
140
0.0
141
0.0
142
1.0
143
1.0
 70
1712
 72
0
 73
0
 74
0
  7

 75
0
147
1.0
148
0.0
149
0.0
100
AcDbLayout
  1
Model
 70
1
 71
0
 10
0.0
 20
0.0
 11
12.0
 21
9.0
 12
0.0
 22
0.0
 32
0.0
 14
0.0
 24
0.0
 34
0.0
 15
0.0
 25
0.0
 35
0.0
146
0.0
 13
0.0
 23
0.0
 33
0.0
 16
1.0
 26
0.0
 36
0.0
 17
0.0
 27
1.0
 37
0.0
 76
0
330
1F
  0
LAYOUT
  5
26
100
AcDbPlotSettings
  1

  2
C:\Program Files\AutoCAD 2002\plotters\DWF ePlot (optimized for plotting).pc3
  4

  6

 40
0.0
 41
0.0
 42
0.0
 43
0.0
 44
0.0
 45
0.0
 46
0.0
 47
0.0
 48
0.0
 49
0.0
140
0.0
141
0.0
142
1.0
143
1.0
 70
688
 72
0
 73
0
 74
5
  7

 75
16
147
1.0
148
0.0
149
0.0
100
AcDbLayout
  1
Layout2
 70
1
 71
2
 10
0.0
 20
0.0
 11
12.0
 21
9.0
 12
0.0
 22
0.0
 32
0.0
 14
0.0
 24
0.0
 34
0.0
 15
0.0
 25
0.0
 35
0.0
146
0.0
 13
0.0
 23
0.0
 33
0.0
 16
1.0
 26
0.0
 36
0.0
 17
0.0
 27
1.0
 37
0.0
 76
0
330
23
  0
DICTIONARY
  5
89
100
AcDbDictionary
281
1
  3
DIMASSOC
350
8B
  3
HIDETEXT
350
8A
  0
DICTIONARYVAR
  5
8A
100
DictionaryVariables
280
0
  1
2
  0
DICTIONARYVAR
  5
8B
100
DictionaryVariables
280
0
  1
1
  0
ENDSEC
  0
EOF
