999
dxflib 2.2.0.0
  0
SECTION
  2
HEADER
  9
$ACADVER
  1
AC1015
  9
$HANDSEED
  5
FFFF
  9
$DIMASZ
 40
2.5
  9
$PLIMMIN
 10
0.0
 20
0.0
  9
$DIMEXE
 40
1.25
  9
$DIMGAP
 40
0.625
  9
$PLIMMAX
 10
210.0
 20
297.0
  9
$INSUNITS
 70
4
  9
$DIMSTYLE
  2
Standard
  9
$MEASUREMENT
 70
1
  9
$DIMEXO
 40
0.625
  9
$DIMTXT
 40
2.5
  0
ENDSEC
  0
SECTION
  2
TABLES
  0
TABLE
  2
VPORT
  5
8
100
AcDbSymbolTable
 70
1
  0
VPORT
  5
30
100
AcDbSymbolTableRecord
100
AcDbViewportTableRecord
  2
*Active
 70
0
 10
0.0
 20
0.0
 11
1.0
 21
1.0
 12
286.3055555555554861
 22
148.5
 13
0.0
 23
0.0
 14
10.0
 24
10.0
 15
10.0
 25
10.0
 16
0.0
 26
0.0
 36
1.0
 17
0.0
 27
0.0
 37
0.0
 40
297.0
 41
1.92798353909465
 42
50.0
 43
0.0
 44
0.0
 50
0.0
 51
0.0
 71
0
 72
100
 73
1
 74
3
 75
1
 76
1
 77
0
 78
0
281
0
 65
1
110
0.0
120
0.0
130
0.0
111
1.0
121
0.0
131
0.0
112
0.0
122
1.0
132
0.0
 79
0
146
0.0
  0
ENDTAB
  0
TABLE
  2
LTYPE
  5
5
100
AcDbSymbolTable
 70
21
  0
LTYPE
  5
14
100
AcDbSymbolTableRecord
100
AcDbLinetypeTableRecord
  2
ByBlock
 70
0
  3

 72
65
 73
0
 40
0.0
  0
LTYPE
  5
15
100
AcDbSymbolTableRecord
100
AcDbLinetypeTableRecord
  2
ByLayer
 70
0
  3

 72
65
 73
0
 40
0.0
  0
LTYPE
  5
16
100
AcDbSymbolTableRecord
100
AcDbLinetypeTableRecord
  2
CONTINUOUS
 70
0
  3
Solid line
 72
65
 73
0
 40
0.0
  0
LTYPE
  5
31
100
AcDbSymbolTableRecord
100
AcDbLinetypeTableRecord
  2
DOT
 70
0
  3
Dot . . . . . . . . . . . . . . . . . . . . . .
 72
65
 73
2
 40
6.3499999999999996
 49
0.0
 74
0
 49
-6.3499999999999996
 74
0
  0
LTYPE
  5
32
100
AcDbSymbolTableRecord
100
AcDbLinetypeTableRecord
  2
DOT2
 70
0
  3
Dot (.5x) .....................................
 72
65
 73
2
 40
3.1749999999999998
 49
0.0
 74
0
 49
-3.1749999999999998
 74
0
  0
LTYPE
  5
33
100
AcDbSymbolTableRecord
100
AcDbLinetypeTableRecord
  2
DOTX2
 70
0
  3
Dot (2x) .  .  .  .  .  .  .  .  .  .  .  .  .
 72
65
 73
2
 40
12.6999999999999993
 49
0.0
 74
0
 49
-12.6999999999999993
 74
0
  0
LTYPE
  5
34
100
AcDbSymbolTableRecord
100
AcDbLinetypeTableRecord
  2
DASHED
 70
0
  3
Dashed __ __ __ __ __ __ __ __ __ __ __ __ __ _
 72
65
 73
2
 40
19.0500000000000007
 49
12.6999999999999993
 74
0
 49
-6.3499999999999996
 74
0
  0
LTYPE
  5
35
100
AcDbSymbolTableRecord
100
AcDbLinetypeTableRecord
  2
DASHED2
 70
0
  3
Dashed (.5x) _ _ _ _ _ _ _ _ _ _ _ _ _ _ _ _ _
 72
65
 73
2
 40
9.5250000000000004
 49
6.3499999999999996
 74
0
 49
-3.1749999999999998
 74
0
  0
LTYPE
  5
36
100
AcDbSymbolTableRecord
100
AcDbLinetypeTableRecord
  2
DASHEDX2
 70
0
  3
Dashed (2x) ____  ____  ____  ____  ____  ___
 72
65
 73
2
 40
38.1000000000000014
 49
25.3999999999999986
 74
0
 49
-12.6999999999999993
 74
0
  0
LTYPE
  5
37
100
AcDbSymbolTableRecord
100
AcDbLinetypeTableRecord
  2
DASHDOT
 70
0
  3
Dash dot __ . __ . __ . __ . __ . __ . __ . __
 72
65
 73
4
 40
25.3999999999999986
 49
12.6999999999999993
 74
0
 49
-6.3499999999999996
 74
0
 49
0.0
 74
0
 49
-6.3499999999999996
 74
0
  0
LTYPE
  5
38
100
AcDbSymbolTableRecord
100
AcDbLinetypeTableRecord
  2
DASHDOT2
 70
0
  3
Dash dot (.5x) _._._._._._._._._._._._._._._.
 72
65
 73
4
 40
12.6999999999999993
 49
6.3499999999999996
 74
0
 49
-3.1749999999999998
 74
0
 49
0.0
 74
0
 49
-3.1749999999999998
 74
0
  0
LTYPE
  5
39
100
AcDbSymbolTableRecord
100
AcDbLinetypeTableRecord
  2
DASHDOTX2
 70
0
  3
Dash dot (2x) ____  .  ____  .  ____  .  ___
 72
65
 73
4
 40
50.7999999999999972
 49
25.3999999999999986
 74
0
 49
-12.6999999999999993
 74
0
 49
0.0
 74
0
 49
-12.6999999999999993
 74
0
  0
LTYPE
  5
3A
100
AcDbSymbolTableRecord
100
AcDbLinetypeTableRecord
  2
DIVIDE
 70
0
  3
Divide ____ . . ____ . . ____ . . ____ . . ____
 72
65
 73
6
 40
31.75
 49
12.6999999999999993
 74
0
 49
-6.3499999999999996
 74
0
 49
0.0
 74
0
 49
-6.3499999999999996
 74
0
 49
0.0
 74
0
 49
-6.3499999999999996
 74
0
  0
LTYPE
  5
3B
100
AcDbSymbolTableRecord
100
AcDbLinetypeTableRecord
  2
DIVIDE2
 70
0
  3
Divide (.5x) __..__..__..__..__..__..__..__.._
 72
65
 73
6
 40
15.875
 49
6.3499999999999996
 74
0
 49
-3.1749999999999998
 74
0
 49
0.0
 74
0
 49
-3.1749999999999998
 74
0
 49
0.0
 74
0
 49
-3.1749999999999998
 74
0
  0
LTYPE
  5
3C
100
AcDbSymbolTableRecord
100
AcDbLinetypeTableRecord
  2
DIVIDEX2
 70
0
  3
Divide (2x) ________  .  .  ________  .  .  _
 72
65
 73
6
 40
63.5
 49
25.3999999999999986
 74
0
 49
-12.6999999999999993
 74
0
 49
0.0
 74
0
 49
-12.6999999999999993
 74
0
 49
0.0
 74
0
 49
-12.6999999999999993
 74
0
  0
LTYPE
  5
3D
100
AcDbSymbolTableRecord
100
AcDbLinetypeTableRecord
  2
CENTER
 70
0
  3
Center ____ _ ____ _ ____ _ ____ _ ____ _ ____
 72
65
 73
4
 40
50.7999999999999972
 49
31.75
 74
0
 49
-6.3499999999999996
 74
0
 49
6.3499999999999996
 74
0
 49
-6.3499999999999996
 74
0
  0
LTYPE
  5
3E
100
AcDbSymbolTableRecord
100
AcDbLinetypeTableRecord
  2
CENTER2
 70
0
  3
Center (.5x) ___ _ ___ _ ___ _ ___ _ ___ _ ___
 72
65
 73
4
 40
28.5749999999999993
 49
19.0500000000000007
 74
0
 49
-3.1749999999999998
 74
0
 49
3.1749999999999998
 74
0
 49
-3.1749999999999998
 74
0
  0
LTYPE
  5
3F
100
AcDbSymbolTableRecord
100
AcDbLinetypeTableRecord
  2
CENTERX2
 70
0
  3
Center (2x) ________  __  ________  __  _____
 72
65
 73
4
 40
101.5999999999999943
 49
63.5
 74
0
 49
-12.6999999999999993
 74
0
 49
12.6999999999999993
 74
0
 49
-12.6999999999999993
 74
0
  0
LTYPE
  5
40
100
AcDbSymbolTableRecord
100
AcDbLinetypeTableRecord
  2
BORDER
 70
0
  3
Border __ __ . __ __ . __ __ . __ __ . __ __ .
 72
65
 73
6
 40
44.4500000000000028
 49
12.6999999999999993
 74
0
 49
-6.3499999999999996
 74
0
 49
12.6999999999999993
 74
0
 49
-6.3499999999999996
 74
0
 49
0.0
 74
0
 49
-6.3499999999999996
 74
0
  0
LTYPE
  5
41
100
AcDbSymbolTableRecord
100
AcDbLinetypeTableRecord
  2
BORDER2
 70
0
  3
Border (.5x) __.__.__.__.__.__.__.__.__.__.__.
 72
65
 73
6
 40
22.2250000000000014
 49
6.3499999999999996
 74
0
 49
-3.1749999999999998
 74
0
 49
6.3499999999999996
 74
0
 49
-3.1749999999999998
 74
0
 49
0.0
 74
0
 49
-3.1749999999999998
 74
0
  0
LTYPE
  5
42
100
AcDbSymbolTableRecord
100
AcDbLinetypeTableRecord
  2
BORDERX2
 70
0
  3
Border (2x) ____  ____  .  ____  ____  .  ___
 72
65
 73
6
 40
88.9000000000000057
 49
25.3999999999999986
 74
0
 49
-12.6999999999999993
 74
0
 49
25.3999999999999986
 74
0
 49
-12.6999999999999993
 74
0
 49
0.0
 74
0
 49
-12.6999999999999993
 74
0
  0
ENDTAB
  0
TABLE
  2
LAYER
  5
2
100
AcDbSymbolTable
 70
4
  0
LAYER
  5
10
100
AcDbSymbolTableRecord
100
AcDbLayerTableRecord
  2
0
 70
0
 62
7
  6
CONTINUOUS
390
F
  0
LAYER
  5
43
100
AcDbSymbolTableRecord
100
AcDbLayerTableRecord
  2
Cut
 70
0
 62
1
  6
CONTINUOUS
370
-3
390
F
  0
LAYER
  5
44
100
AcDbSymbolTableRecord
100
AcDbLayerTableRecord
  2
Engrave
 70
0
 62
7
  6
CONTINUOUS
370
0
390
F
  0
LAYER
  5
45
100
AcDbSymbolTableRecord
100
AcDbLayerTableRecord
  2
LED
 70
0
 62
1
  6
CONTINUOUS
370
0
390
F
  0
ENDTAB
  0
TABLE
  2
STYLE
  5
3
100
AcDbSymbolTable
 70
1
  0
STYLE
  5
11
100
AcDbSymbolTableRecord
100
AcDbTextStyleTableRecord
  2
Standard
 70
0
 40
0.0
 41
0.75
 50
0.0
 71
0
 42
2.5
  3
txt
  4

  0
ENDTAB
  0
TABLE
  2
VIEW
  5
6
100
AcDbSymbolTable
 70
0
  0
ENDTAB
  0
TABLE
  2
UCS
  5
7
100
AcDbSymbolTable
 70
0
  0
ENDTAB
  0
TABLE
  2
APPID
  5
9
100
AcDbSymbolTable
 70
1
  0
APPID
  5
12
100
AcDbSymbolTableRecord
100
AcDbRegAppTableRecord
  2
ACAD
 70
0
  0
ENDTAB
  0
TABLE
  2
DIMSTYLE
  5
A
100
AcDbSymbolTable
 70
1
100
AcDbDimStyleTable
 71
0
  0
DIMSTYLE
105
27
100
AcDbSymbolTableRecord
100
AcDbDimStyleTableRecord
  2
Standard
 41
2.5
 42
0.625
 43
3.75
 44
1.25
 70
0
 73
0
 74
0
 77
1
 78
8
140
2.5
141
2.5
143
0.03937007874016
147
0.625
171
3
172
1
271
2
272
2
274
3
278
44
283
0
284
8
340
11
  0
ENDTAB
  0
TABLE
  2
BLOCK_RECORD
  5
1
100
AcDbSymbolTable
 70
1
  0
BLOCK_RECORD
  5
1F
100
AcDbSymbolTableRecord
100
AcDbBlockTableRecord
  2
*Model_Space
340
22
  0
BLOCK_RECORD
  5
1B
100
AcDbSymbolTableRecord
100
AcDbBlockTableRecord
  2
*Paper_Space
340
1E
  0
BLOCK_RECORD
  5
23
100
AcDbSymbolTableRecord
100
AcDbBlockTableRecord
  2
*Paper_Space0
340
26
  0
BLOCK_RECORD
  5
46
100
AcDbSymbolTableRecord
100
AcDbBlockTableRecord
  2
LED
340
0
  0
ENDTAB
  0
ENDSEC
  0
SECTION
  2
BLOCKS
  0
BLOCK
  5
20
100
AcDbEntity
  8
0
100
AcDbBlockBegin
  2
*Model_Space
 70
0
 10
0.0
 20
0.0
 30
0.0
  3
*Model_Space
  1

  0
ENDBLK
  5
21
100
AcDbEntity
  8
0
100
AcDbBlockEnd
  0
BLOCK
  5
1C
100
AcDbEntity
 67
1
  8
0
100
AcDbBlockBegin
  2
*Paper_Space
 70
0
 10
0.0
 20
0.0
 30
0.0
  3
*Paper_Space
  1

  0
ENDBLK
  5
1D
100
AcDbEntity
 67
1
  8
0
100
AcDbBlockEnd
  0
BLOCK
  5
24
100
AcDbEntity
  8
0
100
AcDbBlockBegin
  2
*Paper_Space0
 70
0
 10
0.0
 20
0.0
 30
0.0
  3
*Paper_Space0
  1

  0
ENDBLK
  5
25
100
AcDbEntity
  8
0
100
AcDbBlockEnd
  0
BLOCK
  5
47
100
AcDbEntity
  8
0
100
AcDbBlockBegin
  2
LED
 70
0
 10
0.0
 20
0.0
 30
0.0
  3
LED
  1

  0
LINE
  5
48
100
AcDbEntity
100
AcDbLine
  8
LED
 62
256
370
-1
  6
ByLayer
 10
-2.75
 20
0.0
 30
0.0
 11
-2.7499999999999996
 21
-8.0
 31
0.0
  0
LINE
  5
49
100
AcDbEntity
100
AcDbLine
  8
LED
 62
256
370
-1
  6
ByLayer
 10
2.75
 20
0.0
 30
0.0
 11
2.7499999999999973
 21
-8.0000000000000018
 31
0.0
  0
LINE
  5
4A
100
AcDbEntity
100
AcDbLine
  8
LED
 62
256
370
-1
  6
ByLayer
 10
-2.7499999999999996
 20
-8.0
 30
0.0
 11
2.7499999999999973
 21
-8.0000000000000018
 31
0.0
  0
ENDBLK
  5
4B
100
AcDbEntity
  8
0
100
AcDbBlockEnd
  0
ENDSEC
  0
SECTION
  2
ENTITIES
  0
ARC
  5
4C
100
AcDbEntity
  8
Cut
 62
256
370
-1
  6
ByLayer
100
AcDbCircle
 10
5.0
 20
45.0
 30
0.0
 40
5.0
100
AcDbArc
 50
90.0
 51
180.0
  0
LINE
  5
4D
100
AcDbEntity
100
AcDbLine
  8
Cut
 62
256
370
-1
  6
ByLayer
 10
0.0
 20
5.0
 30
0.0
 11
0.0
 21
45.0
 31
0.0
  0
ARC
  5
4E
100
AcDbEntity
  8
Cut
 62
256
370
-1
  6
ByLayer
100
AcDbCircle
 10
5.0
 20
5.0
 30
0.0
 40
5.0
100
AcDbArc
 50
180.0
 51
270.0
  0
LINE
  5
4F
100
AcDbEntity
100
AcDbLine
  8
Cut
 62
256
370
-1
  6
ByLayer
 10
5.0
 20
50.0
 30
0.0
 11
195.0
 21
50.0
 31
0.0
  0
ARC
  5
50
100
AcDbEntity
  8
Cut
 62
256
370
-1
  6
ByLayer
100
AcDbCircle
 10
195.0
 20
45.0
 30
0.0
 40
5.0
100
AcDbArc
 50
0.0
 51
90.0
  0
LINE
  5
51
100
AcDbEntity
100
AcDbLine
  8
Cut
 62
256
370
-1
  6
ByLayer
 10
200.0
 20
45.0
 30
0.0
 11
200.0
 21
5.0
 31
0.0
  0
LINE
  5
52
100
AcDbEntity
100
AcDbLine
  8
Cut
 62
256
370
-1
  6
ByLayer
 10
195.0
 20
0.0
 30
0.0
 11
5.0
 21
0.0
 31
0.0
  0
ARC
  5
53
100
AcDbEntity
  8
Cut
 62
256
370
-1
  6
ByLayer
100
AcDbCircle
 10
195.0
 20
5.0
 30
0.0
 40
5.0
100
AcDbArc
 50
270.0
 51
0.0
  0
CIRCLE
  5
54
100
AcDbEntity
100
AcDbCircle
  8
Cut
 62
256
370
-1
  6
ByLayer
 10
5.0
 20
45.0
 30
0.0
 40
2.0
  0
CIRCLE
  5
55
100
AcDbEntity
100
AcDbCircle
  8
Cut
 62
256
370
-1
  6
ByLayer
 10
5.0
 20
5.0
 30
0.0
 40
2.0
  0
CIRCLE
  5
56
100
AcDbEntity
100
AcDbCircle
  8
Cut
 62
256
370
-1
  6
ByLayer
 10
195.0
 20
5.0
 30
0.0
 40
2.0
  0
CIRCLE
  5
57
100
AcDbEntity
100
AcDbCircle
  8
Cut
 62
256
370
-1
  6
ByLayer
 10
195.0
 20
45.0
 30
0.0
 40
2.0
  0
SPLINE
  5
58
  8
Engrave
 62
256
370
-1
  6
ByLayer
100
AcDbEntity
100
AcDbSpline
 70
8
 71
3
 72
8
 73
4
 74
0
 40
0.0
 40
0.0
 40
0.0
 40
0.0
 40
1.0
 40
1.0
 40
1.0
 40
1.0
 10
17.0819070734148539
 20
39.3955754038266619
 30
0.0
 10
25.4417250734148439
 20
39.3183204038266538
 30
0.0
 10
25.7325010734148378
 20
39.2867114038266507
 30
0.0
 10
27.8968940734148561
 20
38.2199454038266779
 30
0.0
  0
SPLINE
  5
59
  8
Engrave
 62
256
370
-1
  6
ByLayer
100
AcDbEntity
100
AcDbSpline
 70
8
 71
3
 72
8
 73
4
 74
0
 40
0.0
 40
0.0
 40
0.0
 40
0.0
 40
1.0
 40
1.0
 40
1.0
 40
1.0
 10
27.8968940734148561
 20
38.2199454038266779
 30
0.0
 10
29.4050310734148326
 20
37.4766314038266515
 30
0.0
 10
30.4385590734148508
 20
36.4199374038266583
 30
0.0
 10
31.2264000734148368
 20
34.8158204038266561
 30
0.0
  0
SPLINE
  5
5A
  8
Engrave
 62
256
370
-1
  6
ByLayer
100
AcDbEntity
100
AcDbSpline
 70
8
 71
3
 72
8
 73
4
 74
0
 40
0.0
 40
0.0
 40
0.0
 40
0.0
 40
1.0
 40
1.0
 40
1.0
 40
1.0
 10
31.2264000734148368
 20
34.8158204038266561
 30
0.0
 10
32.8370000734148419
 20
31.5364804038266691
 30
0.0
 10
31.9800430734148478
 20
28.5852064038266569
 30
0.0
 10
28.7765810734148459
 20
26.3788974038266808
 30
0.0
  0
SPLINE
  5
5B
  8
Engrave
 62
256
370
-1
  6
ByLayer
100
AcDbEntity
100
AcDbSpline
 70
8
 71
3
 72
8
 73
4
 74
0
 40
0.0
 40
0.0
 40
0.0
 40
0.0
 40
1.0
 40
1.0
 40
1.0
 40
1.0
 10
28.7765810734148459
 20
26.3788974038266808
 30
0.0
 10
28.3223270734148542
 20
26.0660394038266752
 30
0.0
 10
27.9506660734148369
 20
25.7584314038266591
 30
0.0
 10
27.9506660734148369
 20
25.6953214038266644
 30
0.0
  0
SPLINE
  5
5C
  8
Engrave
 62
256
370
-1
  6
ByLayer
100
AcDbEntity
100
AcDbSpline
 70
8
 71
3
 72
8
 73
4
 74
0
 40
0.0
 40
0.0
 40
0.0
 40
0.0
 40
1.0
 40
1.0
 40
1.0
 40
1.0
 10
27.9506660734148369
 20
25.6953214038266644
 30
0.0
 10
27.9506660734148369
 20
25.6322074038266798
 30
0.0
 10
28.203215073414853
 20
25.42448940382668
 30
0.0
 10
28.5118880734148519
 20
25.2337184038266678
 30
0.0
  0
SPLINE
  5
5D
  8
Engrave
 62
256
370
-1
  6
ByLayer
100
AcDbEntity
100
AcDbSpline
 70
8
 71
3
 72
8
 73
4
 74
0
 40
0.0
 40
0.0
 40
0.0
 40
0.0
 40
1.0
 40
1.0
 40
1.0
 40
1.0
 10
28.5118880734148519
 20
25.2337184038266678
 30
0.0
 10
29.5564460734148469
 20
24.5881434038266597
 30
0.0
 10
30.8685760734148431
 20
23.3943404038266571
 30
0.0
 10
31.5480340734148541
 20
22.4713614038266591
 30
0.0
  0
SPLINE
  5
5E
  8
Engrave
 62
256
370
-1
  6
ByLayer
100
AcDbEntity
100
AcDbSpline
 70
8
 71
3
 72
8
 73
4
 74
0
 40
0.0
 40
0.0
 40
0.0
 40
0.0
 40
1.0
 40
1.0
 40
1.0
 40
1.0
 10
31.5480340734148541
 20
22.4713614038266591
 30
0.0
 10
32.5180460734148511
 20
21.1536934038266615
 30
0.0
 10
32.8881810734148559
 20
19.8375114038266638
 30
0.0
 10
32.7961000734148485
 20
18.0332954038266671
 30
0.0
  0
SPLINE
  5
5F
  8
Engrave
 62
256
370
-1
  6
ByLayer
100
AcDbEntity
100
AcDbSpline
 70
8
 71
3
 72
8
 73
4
 74
0
 40
0.0
 40
0.0
 40
0.0
 40
0.0
 40
1.0
 40
1.0
 40
1.0
 40
1.0
 10
32.7961000734148485
 20
18.0332954038266671
 30
0.0
 10
32.6413260734148452
 20
15.000611403826678
 30
0.0
 10
31.1022670734148363
 20
12.598697403826673
 30
0.0
 10
28.5205660734148552
 20
11.3607214038266697
 30
0.0
  0
SPLINE
  5
60
  8
Engrave
 62
256
370
-1
  6
ByLayer
100
AcDbEntity
100
AcDbSpline
 70
8
 71
3
 72
8
 73
4
 74
0
 40
0.0
 40
0.0
 40
0.0
 40
0.0
 40
1.0
 40
1.0
 40
1.0
 40
1.0
 10
28.5205660734148552
 20
11.3607214038266697
 30
0.0
 10
26.2628700734148453
 20
10.2781134038266764
 30
0.0
 10
26.070634073414837
 20
10.2578924038266557
 30
0.0
 10
17.3869950734148375
 20
10.1895924038266621
 30
0.0
  0
LWPOLYLINE
  5
61
  8
Engrave
 62
256
370
-1
  6
ByLayer
100
AcDbEntity
100
AcDbPolyline
 90
3
 70
0
 10
9.6453880734148498
 20
24.7965024038266613
 10
9.6453880734148498
 20
39.464299403826665
 10
17.0819070734148539
 20
39.3955754038266619
  0
SPLINE
  5
62
  8
Engrave
 62
256
370
-1
  6
ByLayer
100
AcDbEntity
100
AcDbSpline
 70
8
 71
3
 72
8
 73
4
 74
0
 40
0.0
 40
0.0
 40
0.0
 40
0.0
 40
1.0
 40
1.0
 40
1.0
 40
1.0
 10
25.3574160734148535
 20
15.2734864038266771
 30
0.0
 10
25.7349650734148412
 20
15.4492684038266752
 30
0.0
 10
26.2687010734148458
 20
15.8244634038266661
 30
0.0
 10
26.5434980734148525
 20
16.1072554038266667
 30
0.0
  0
SPLINE
  5
63
  8
Engrave
 62
256
370
-1
  6
ByLayer
100
AcDbEntity
100
AcDbSpline
 70
8
 71
3
 72
8
 73
4
 74
0
 40
0.0
 40
0.0
 40
0.0
 40
0.0
 40
1.0
 40
1.0
 40
1.0
 40
1.0
 10
26.5434980734148525
 20
16.1072554038266667
 30
0.0
 10
27.8406160734148358
 20
17.4420964038266781
 30
0.0
 10
27.7857490734148342
 20
20.3815674038266756
 30
0.0
 10
26.4385700734148514
 20
21.7287474038266559
 30
0.0
  0
SPLINE
  5
64
  8
Engrave
 62
256
370
-1
  6
ByLayer
100
AcDbEntity
100
AcDbSpline
 70
8
 71
3
 72
8
 73
4
 74
0
 40
0.0
 40
0.0
 40
0.0
 40
0.0
 40
1.0
 40
1.0
 40
1.0
 40
1.0
 10
26.4385700734148514
 20
21.7287474038266559
 30
0.0
 10
25.3862990734148326
 20
22.7810184038266748
 30
0.0
 10
24.9569460734148407
 20
22.858804403826678
 30
0.0
 10
19.8276980734148509
 20
22.9264534038266667
 30
0.0
  0
LWPOLYLINE
  5
65
  8
Engrave
 62
256
370
-1
  6
ByLayer
100
AcDbEntity
100
AcDbPolyline
 90
4
 70
0
 10
17.3869950734148375
 20
10.1895924038266621
 10
9.6453880734148498
 20
10.1287024038266615
 10
9.6453880734148498
 20
24.7965024038266613
 10
9.6453880734148498
 20
24.7965024038266613
  0
SPLINE
  5
66
  8
Engrave
 62
256
370
-1
  6
ByLayer
100
AcDbEntity
100
AcDbSpline
 70
8
 71
3
 72
8
 73
4
 74
0
 40
0.0
 40
0.0
 40
0.0
 40
0.0
 40
1.0
 40
1.0
 40
1.0
 40
1.0
 10
19.9802420734148285
 20
14.9076104038266628
 30
0.0
 10
24.367587073414839
 20
14.9508894038266753
 30
0.0
 10
24.7153660734148417
 20
14.9745544038266694
 30
0.0
 10
25.3574160734148535
 20
15.2734864038266771
 30
0.0
  0
LWPOLYLINE
  5
67
  8
Engrave
 62
256
370
-1
  6
ByLayer
100
AcDbEntity
100
AcDbPolyline
 90
5
 70
0
 10
19.8276980734148509
 20
22.9264534038266667
 10
15.2895140734148498
 20
22.9863064038266707
 10
15.2895140734148498
 20
18.9238224038266587
 10
15.2895140734148498
 20
14.8613374038266777
 10
19.9802420734148285
 20
14.9076104038266628
  0
SPLINE
  5
68
  8
Engrave
 62
256
370
-1
  6
ByLayer
100
AcDbEntity
100
AcDbSpline
 70
8
 71
3
 72
8
 73
4
 74
0
 40
0.0
 40
0.0
 40
0.0
 40
0.0
 40
1.0
 40
1.0
 40
1.0
 40
1.0
 10
24.4634770734148361
 20
27.9034224038266636
 30
0.0
 10
25.3748750734148558
 20
28.241750403826682
 30
0.0
 10
26.229215073414835
 20
29.0989884038266773
 30
0.0
 10
26.4417960734148352
 20
29.8884604038266666
 30
0.0
  0
SPLINE
  5
69
  8
Engrave
 62
256
370
-1
  6
ByLayer
100
AcDbEntity
100
AcDbSpline
 70
8
 71
3
 72
8
 73
4
 74
0
 40
0.0
 40
0.0
 40
0.0
 40
0.0
 40
1.0
 40
1.0
 40
1.0
 40
1.0
 10
26.4417960734148352
 20
29.8884604038266666
 30
0.0
 10
26.5333550734148531
 20
30.2284814038266738
 30
0.0
 10
26.5825400734148474
 20
30.9619634038266547
 30
0.0
 10
26.551098073414849
 20
31.5184204038266778
 30
0.0
  0
SPLINE
  5
6A
  8
Engrave
 62
256
370
-1
  6
ByLayer
100
AcDbEntity
100
AcDbSpline
 70
8
 71
3
 72
8
 73
4
 74
0
 40
0.0
 40
0.0
 40
0.0
 40
0.0
 40
1.0
 40
1.0
 40
1.0
 40
1.0
 10
26.551098073414849
 20
31.5184204038266778
 30
0.0
 10
26.4733230734148464
 20
32.8948244038266608
 30
0.0
 10
25.9664660734148498
 20
33.6672094038266749
 30
0.0
 10
24.7742610734148485
 20
34.2260884038266582
 30
0.0
  0
SPLINE
  5
6B
  8
Engrave
 62
256
370
-1
  6
ByLayer
100
AcDbEntity
100
AcDbSpline
 70
8
 71
3
 72
8
 73
4
 74
0
 40
0.0
 40
0.0
 40
0.0
 40
0.0
 40
1.0
 40
1.0
 40
1.0
 40
1.0
 10
24.7742610734148485
 20
34.2260884038266582
 30
0.0
 10
23.9100140734148425
 20
34.6312304038266703
 30
0.0
 10
23.8994700734148324
 20
34.6321554038266655
 30
0.0
 10
19.5988840734148511
 20
34.6808084038266671
 30
0.0
  0
LWPOLYLINE
  5
6C
  8
Engrave
 62
256
370
-1
  6
ByLayer
100
AcDbEntity
100
AcDbPolyline
 90
2
 70
0
 10
25.3574160734148535
 20
15.2734864038266771
 10
25.3574160734148535
 20
15.2734864038266771
  0
SPLINE
  5
6D
  8
Engrave
 62
256
370
-1
  6
ByLayer
100
AcDbEntity
100
AcDbSpline
 70
8
 71
3
 72
8
 73
4
 74
0
 40
0.0
 40
0.0
 40
0.0
 40
0.0
 40
1.0
 40
1.0
 40
1.0
 40
1.0
 10
19.5226100734148389
 20
27.5754654038266658
 30
0.0
 10
23.0390620734148541
 20
27.6296444038266706
 30
0.0
 10
23.8755270734148297
 20
27.6851654038266695
 30
0.0
 10
24.4634770734148361
 20
27.9034224038266636
 30
0.0
  0
LWPOLYLINE
  5
6E
  8
Engrave
 62
256
370
-1
  6
ByLayer
100
AcDbEntity
100
AcDbPolyline
 90
5
 70
0
 10
19.5988840734148511
 20
34.6808084038266671
 10
15.2895140734148498
 20
34.7295594038266771
 10
15.2895140734148498
 20
31.1199034038266795
 10
15.2895140734148498
 20
27.5102474038266784
 10
19.5226100734148389
 20
27.5754654038266658
  0
LWPOLYLINE
  5
6F
  8
Engrave
 62
256
370
-1
  6
ByLayer
100
AcDbEntity
100
AcDbPolyline
 90
3
 70
0
 10
24.4634770734148361
 20
27.9034224038266636
 10
24.4634770734148361
 20
27.9034224038266636
 10
24.4634770734148361
 20
27.9034224038266636
  0
SPLINE
  5
70
  8
Engrave
 62
256
370
-1
  6
ByLayer
100
AcDbEntity
100
AcDbSpline
 70
8
 71
3
 72
8
 73
4
 74
0
 40
0.0
 40
0.0
 40
0.0
 40
0.0
 40
1.0
 40
1.0
 40
1.0
 40
1.0
 10
60.8072710734148387
 20
10.4885414038266553
 30
0.0
 10
60.859214073414833
 20
10.6792024038266611
 30
0.0
 10
63.1864010734148422
 20
17.2534844038266719
 30
0.0
 10
65.9787930734148489
 20
25.0980574038266688
 30
0.0
  0
LWPOLYLINE
  5
71
  8
Engrave
 62
256
370
-1
  6
ByLayer
100
AcDbEntity
100
AcDbPolyline
 90
26
 70
0
 10
36.7982170734148468
 20
24.7929694038266568
 10
36.7982170734148468
 20
39.4371924038266641
 10
47.2474780734148538
 20
39.4371924038266641
 10
57.6967420734148533
 20
39.4371924038266641
 10
57.6967420734148533
 20
37.0727604038266705
 10
57.6967420734148533
 20
34.7083274038266509
 10
50.0695420734148371
 20
34.7083274038266509
 10
42.4423430734148468
 20
34.7083274038266509
 10
42.4423430734148468
 20
31.1235434038266696
 10
42.4423430734148468
 20
27.5387624038266772
 10
49.5356370734148328
 20
27.5387624038266772
 10
56.6289340734148396
 20
27.5387624038266772
 10
56.6289340734148396
 20
25.2506014038266748
 10
56.6289340734148396
 20
22.9624424038266675
 10
49.5356370734148328
 20
22.9624424038266675
 10
42.4423430734148468
 20
22.9624424038266675
 10
42.4423430734148468
 20
18.9200264038266646
 10
42.4423430734148468
 20
14.8776104038266617
 10
50.4509030734148354
 20
14.8776104038266617
 10
58.459461073414829
 20
14.8776104038266617
 10
58.459461073414829
 20
12.5131814038266604
 10
58.459461073414829
 20
10.1487484038266693
 10
47.6288390734148521
 20
10.1487484038266693
 10
36.7982170734148468
 20
10.1487484038266693
 10
36.7982170734148468
 20
24.7929694038266568
 10
36.7982170734148468
 20
24.7929694038266568
  0
SPLINE
  5
72
  8
Engrave
 62
256
370
-1
  6
ByLayer
100
AcDbEntity
100
AcDbSpline
 70
8
 71
3
 72
8
 73
4
 74
0
 40
0.0
 40
0.0
 40
0.0
 40
0.0
 40
1.0
 40
1.0
 40
1.0
 40
1.0
 10
81.4691520734148327
 20
27.8081604038266725
 30
0.0
 10
83.6790340734148543
 20
21.4095024038266608
 30
0.0
 10
85.9571120734148479
 20
14.8170344038266641
 30
0.0
 10
86.5315440734148495
 20
13.1582314038266581
 30
0.0
  0
LWPOLYLINE
  5
73
  8
Engrave
 62
256
370
-1
  6
ByLayer
100
AcDbEntity
100
AcDbPolyline
 90
5
 70
0
 10
65.9787930734148489
 20
25.0980574038266688
 10
71.0558720734148466
 20
39.3609194038266779
 10
74.2535280734148415
 20
39.4015024038266759
 10
77.4511850734148339
 20
39.4420894038266638
 10
81.4691520734148327
 20
27.8081604038266725
  0
SPLINE
  5
74
  8
Engrave
 62
256
370
-1
  6
ByLayer
100
AcDbEntity
100
AcDbSpline
 70
8
 71
3
 72
8
 73
4
 74
0
 40
0.0
 40
0.0
 40
0.0
 40
0.0
 40
1.0
 40
1.0
 40
1.0
 40
1.0
 10
78.2523150734148345
 20
21.0175074038266807
 30
0.0
 10
78.2135380734148526
 20
21.1223814038266759
 30
0.0
 10
77.2973200734148378
 20
23.8681724038266729
 30
0.0
 10
76.2162710734148305
 20
27.1192644038266728
 30
0.0
  0
SPLINE
  5
75
  8
Engrave
 62
256
370
-1
  6
ByLayer
100
AcDbEntity
100
AcDbSpline
 70
8
 71
3
 72
8
 73
4
 74
0
 40
0.0
 40
0.0
 40
0.0
 40
0.0
 40
1.0
 40
1.0
 40
1.0
 40
1.0
 10
76.2162710734148305
 20
27.1192644038266728
 30
0.0
 10
75.1352240734148467
 20
30.3703604038266626
 30
0.0
 10
74.2042970734148497
 20
33.0303444038266747
 30
0.0
 10
74.1475430734148375
 20
33.0303444038266747
 30
0.0
  0
SPLINE
  5
76
  8
Engrave
 62
256
370
-1
  6
ByLayer
100
AcDbEntity
100
AcDbSpline
 70
8
 71
3
 72
8
 73
4
 74
0
 40
0.0
 40
0.0
 40
0.0
 40
0.0
 40
1.0
 40
1.0
 40
1.0
 40
1.0
 10
74.1475430734148375
 20
33.0303444038266747
 30
0.0
 10
74.054677073414851
 20
33.0303444038266747
 30
0.0
 10
70.0528030734148359
 20
21.2153844038266577
 30
0.0
 10
70.0528030734148359
 20
20.9412084038266748
 30
0.0
  0
SPLINE
  5
77
  8
Engrave
 62
256
370
-1
  6
ByLayer
100
AcDbEntity
100
AcDbSpline
 70
8
 71
3
 72
8
 73
4
 74
0
 40
0.0
 40
0.0
 40
0.0
 40
0.0
 40
1.0
 40
1.0
 40
1.0
 40
1.0
 10
70.0528030734148359
 20
20.9412084038266748
 30
0.0
 10
70.0528030734148359
 20
20.8782984038266584
 30
0.0
 10
71.9135560734148527
 20
20.8268264038266686
 30
0.0
 10
74.1878100734148376
 20
20.8268264038266686
 30
0.0
  0
SPLINE
  5
78
  8
Engrave
 62
256
370
-1
  6
ByLayer
100
AcDbEntity
100
AcDbSpline
 70
8
 71
3
 72
8
 73
4
 74
0
 40
0.0
 40
0.0
 40
0.0
 40
0.0
 40
1.0
 40
1.0
 40
1.0
 40
1.0
 10
74.1878100734148376
 20
20.8268264038266686
 30
0.0
 10
77.4317230734148296
 20
20.8268264038266686
 30
0.0
 10
78.3076250734148545
 20
20.8679184038266605
 30
0.0
 10
78.2523150734148345
 20
21.0175074038266807
 30
0.0
  0
LWPOLYLINE
  5
79
  8
Engrave
 62
256
370
-1
  6
ByLayer
100
AcDbEntity
100
AcDbPolyline
 90
15
 70
0
 10
86.5315440734148495
 20
13.1582314038266581
 10
87.5759670734148443
 20
10.142229403826672
 10
84.6805700734148417
 20
10.1836234038266689
 10
81.7851700734148466
 20
10.2250194038266606
 10
80.8289480734148498
 20
13.1233564038266586
 10
79.8727250734148555
 20
16.0216914038266616
 10
74.1370920734148484
 20
16.0616484038266769
 10
68.4014590734148413
 20
16.1016054038266638
 10
67.4221530734148331
 20
13.1633134038266739
 10
66.4428510734148432
 20
10.2250194038266606
 10
63.5778380734148385
 20
10.1834534038266717
 10
60.7128250734148338
 20
10.1418874038266544
 10
60.8072710734148387
 20
10.4885414038266553
 10
60.8072710734148387
 20
10.4885414038266553
 10
60.8072710734148387
 20
10.4885414038266553
  0
LWPOLYLINE
  5
7A
  8
Engrave
 62
256
370
-1
  6
ByLayer
100
AcDbEntity
100
AcDbPolyline
 90
2
 70
0
 10
78.2523150734148345
 20
21.0175074038266807
 10
78.2523150734148345
 20
21.0175074038266807
  0
SPLINE
  5
7B
  8
Engrave
 62
256
370
-1
  6
ByLayer
100
AcDbEntity
100
AcDbSpline
 70
8
 71
3
 72
8
 73
4
 74
0
 40
0.0
 40
0.0
 40
0.0
 40
0.0
 40
1.0
 40
1.0
 40
1.0
 40
1.0
 10
101.3422530734148523
 20
27.7300244038266719
 30
0.0
 10
103.3113990734148473
 20
19.0869244038266679
 30
0.0
 10
104.0679860734148434
 20
16.0115904038266699
 30
0.0
 10
104.233016073414845
 20
15.9798094038266747
 30
0.0
  0
SPLINE
  5
7C
  8
Engrave
 62
256
370
-1
  6
ByLayer
100
AcDbEntity
100
AcDbSpline
 70
8
 71
3
 72
8
 73
4
 74
0
 40
0.0
 40
0.0
 40
0.0
 40
0.0
 40
1.0
 40
1.0
 40
1.0
 40
1.0
 10
104.233016073414845
 20
15.9798094038266747
 30
0.0
 10
104.4105050734148534
 20
15.9456274038266592
 30
0.0
 10
104.9900970734148444
 20
18.3571564038266608
 30
0.0
 10
107.0467350734148368
 20
27.6869744038266781
 30
0.0
  0
LWPOLYLINE
  5
7D
  8
Engrave
 62
256
370
-1
  6
ByLayer
100
AcDbEntity
100
AcDbPolyline
 90
5
 70
0
 10
90.0360640734148348
 20
24.7929694038266568
 10
90.0360640734148348
 20
39.4371924038266641
 10
94.3555460734148284
 20
39.4371924038266641
 10
98.6750270734148529
 20
39.4371924038266641
 10
101.3422530734148523
 20
27.7300244038266719
  0
SPLINE
  5
7E
  8
Engrave
 62
256
370
-1
  6
ByLayer
100
AcDbEntity
100
AcDbSpline
 70
8
 71
3
 72
8
 73
4
 74
0
 40
0.0
 40
0.0
 40
0.0
 40
0.0
 40
1.0
 40
1.0
 40
1.0
 40
1.0
 10
112.7651160734148306
 20
21.6658174038266615
 30
0.0
 10
112.7651160734148306
 20
31.8015174038266757
 30
0.0
 10
112.7376840734148544
 20
33.1828884038266807
 30
0.0
 10
112.5363010734148332
 20
33.1828884038266807
 30
0.0
  0
SPLINE
  5
7F
  8
Engrave
 62
256
370
-1
  6
ByLayer
100
AcDbEntity
100
AcDbSpline
 70
8
 71
3
 72
8
 73
4
 74
0
 40
0.0
 40
0.0
 40
0.0
 40
0.0
 40
1.0
 40
1.0
 40
1.0
 40
1.0
 10
112.5363010734148332
 20
33.1828884038266807
 30
0.0
 10
112.4104530734148426
 20
33.1828884038266807
 30
0.0
 10
112.307484073414841
 20
33.1553434038266772
 30
0.0
 10
112.307484073414841
 20
33.1216774038266664
 30
0.0
  0
SPLINE
  5
80
  8
Engrave
 62
256
370
-1
  6
ByLayer
100
AcDbEntity
100
AcDbSpline
 70
8
 71
3
 72
8
 73
4
 74
0
 40
0.0
 40
0.0
 40
0.0
 40
0.0
 40
1.0
 40
1.0
 40
1.0
 40
1.0
 10
112.307484073414841
 20
33.1216774038266664
 30
0.0
 10
112.307484073414841
 20
33.0610694038266644
 30
0.0
 10
107.3366330734148306
 20
11.1528444038266734
 30
0.0
 10
107.1729330734148533
 20
10.491973403826659
 30
0.0
  0
SPLINE
  5
81
  8
Engrave
 62
256
370
-1
  6
ByLayer
100
AcDbEntity
100
AcDbSpline
 70
8
 71
3
 72
8
 73
4
 74
0
 40
0.0
 40
0.0
 40
0.0
 40
0.0
 40
1.0
 40
1.0
 40
1.0
 40
1.0
 10
107.1729330734148533
 20
10.491973403826659
 30
0.0
 10
107.08854307341484
 20
10.1512854038266589
 30
0.0
 10
107.0668060734148384
 20
10.1487484038266693
 30
0.0
 10
104.2318920734148406
 20
10.1487484038266693
 30
0.0
  0
LWPOLYLINE
  5
82
  8
Engrave
 62
256
370
-1
  6
ByLayer
100
AcDbEntity
100
AcDbPolyline
 90
9
 70
0
 10
107.0467350734148368
 20
27.6869744038266781
 10
109.636916073414838
 20
39.4371924038266641
 10
114.0230790734148485
 20
39.4371924038266641
 10
118.4092440734148539
 20
39.4371924038266641
 10
118.4092440734148539
 20
24.7929694038266568
 10
118.4092440734148539
 20
10.1487484038266693
 10
115.5871800734148422
 20
10.1487484038266693
 10
112.7651160734148306
 20
10.1487484038266693
 10
112.7651160734148306
 20
21.6658174038266615
  0
SPLINE
  5
83
  8
Engrave
 62
256
370
-1
  6
ByLayer
100
AcDbEntity
100
AcDbSpline
 70
8
 71
3
 72
8
 73
4
 74
0
 40
0.0
 40
0.0
 40
0.0
 40
0.0
 40
1.0
 40
1.0
 40
1.0
 40
1.0
 10
98.7199680734148473
 20
21.6658174038266615
 30
0.0
 10
96.9339080734148553
 20
29.4109174038266694
 30
0.0
 10
96.0012090734148416
 20
33.1828884038266807
 30
0.0
 10
95.8721320734148463
 20
33.1828884038266807
 30
0.0
  0
SPLINE
  5
84
  8
Engrave
 62
256
370
-1
  6
ByLayer
100
AcDbEntity
100
AcDbSpline
 70
8
 71
3
 72
8
 73
4
 74
0
 40
0.0
 40
0.0
 40
0.0
 40
0.0
 40
1.0
 40
1.0
 40
1.0
 40
1.0
 10
95.8721320734148463
 20
33.1828884038266807
 30
0.0
 10
95.7196020734148334
 20
33.1828884038266807
 30
0.0
 10
95.6801920734148297
 20
30.8181004038266728
 30
0.0
 10
95.6801920734148297
 20
21.6658174038266615
 30
0.0
  0
LWPOLYLINE
  5
85
  8
Engrave
 62
256
370
-1
  6
ByLayer
100
AcDbEntity
100
AcDbPolyline
 90
3
 70
0
 10
104.2318920734148406
 20
10.1487484038266693
 10
101.3758660734148549
 20
10.1487484038266693
 10
98.7199680734148473
 20
21.6658174038266615
  0
SPLINE
  5
86
  8
Engrave
 62
256
370
-1
  6
ByLayer
100
AcDbEntity
100
AcDbSpline
 70
8
 71
3
 72
8
 73
4
 74
0
 40
0.0
 40
0.0
 40
0.0
 40
0.0
 40
1.0
 40
1.0
 40
1.0
 40
1.0
 10
145.7146160734148452
 20
9.4125074038266625
 30
0.0
 10
144.2966330734148528
 20
9.6146774038266578
 30
0.0
 10
142.1489110734148653
 20
10.3678774038266788
 30
0.0
 10
140.9243400734148395
 20
11.0924464038266812
 30
0.0
  0
SPLINE
  5
87
  8
Engrave
 62
256
370
-1
  6
ByLayer
100
AcDbEntity
100
AcDbSpline
 70
8
 71
3
 72
8
 73
4
 74
0
 40
0.0
 40
0.0
 40
0.0
 40
0.0
 40
1.0
 40
1.0
 40
1.0
 40
1.0
 10
140.9243400734148395
 20
11.0924464038266812
 30
0.0
 10
139.5815750734148537
 20
11.8869524038266654
 30
0.0
 10
137.6645070734148817
 20
13.7159054038266781
 30
0.0
 10
136.7801720734148603
 20
15.04613140382666
 30
0.0
  0
SPLINE
  5
88
  8
Engrave
 62
256
370
-1
  6
ByLayer
100
AcDbEntity
100
AcDbSpline
 70
8
 71
3
 72
8
 73
4
 74
0
 40
0.0
 40
0.0
 40
0.0
 40
0.0
 40
1.0
 40
1.0
 40
1.0
 40
1.0
 10
136.7801720734148603
 20
15.04613140382666
 30
0.0
 10
134.9721150734148409
 20
17.7658394038266572
 30
0.0
 10
134.1273170734148721
 20
20.7968404038266605
 30
0.0
 10
134.1273170734148721
 20
24.5641544038266595
 30
0.0
  0
SPLINE
  5
89
  8
Engrave
 62
256
370
-1
  6
ByLayer
100
AcDbEntity
100
AcDbSpline
 70
8
 71
3
 72
8
 73
4
 74
0
 40
0.0
 40
0.0
 40
0.0
 40
0.0
 40
1.0
 40
1.0
 40
1.0
 40
1.0
 10
134.1273170734148721
 20
24.5641544038266595
 30
0.0
 10
134.1273170734148721
 20
29.1742324038266752
 30
0.0
 10
135.5071690734148433
 20
32.9732224038266821
 30
0.0
 10
138.2154920734148504
 20
35.8196764038266693
 30
0.0
  0
SPLINE
  5
8A
  8
Engrave
 62
256
370
-1
  6
ByLayer
100
AcDbEntity
100
AcDbSpline
 70
8
 71
3
 72
8
 73
4
 74
0
 40
0.0
 40
0.0
 40
0.0
 40
0.0
 40
1.0
 40
1.0
 40
1.0
 40
1.0
 10
138.2154920734148504
 20
35.8196764038266693
 30
0.0
 10
141.0863840734148766
 20
38.8369904038266682
 30
0.0
 10
145.37541607341484
 20
40.2769644038266748
 30
0.0
 10
149.9095680734148459
 20
39.7457774038266578
 30
0.0
  0
SPLINE
  5
8B
  8
Engrave
 62
256
370
-1
  6
ByLayer
100
AcDbEntity
100
AcDbSpline
 70
8
 71
3
 72
8
 73
4
 74
0
 40
0.0
 40
0.0
 40
0.0
 40
0.0
 40
1.0
 40
1.0
 40
1.0
 40
1.0
 10
149.9095680734148459
 20
39.7457774038266578
 30
0.0
 10
157.6554390734148683
 20
38.8383314038266647
 30
0.0
 10
162.5779300734148478
 20
32.2721604038266747
 30
0.0
 10
162.1451140734148453
 20
23.4246094038266612
 30
0.0
  0
SPLINE
  5
8C
  8
Engrave
 62
256
370
-1
  6
ByLayer
100
AcDbEntity
100
AcDbSpline
 70
8
 71
3
 72
8
 73
4
 74
0
 40
0.0
 40
0.0
 40
0.0
 40
0.0
 40
1.0
 40
1.0
 40
1.0
 40
1.0
 10
162.1451140734148453
 20
23.4246094038266612
 30
0.0
 10
161.9981610734148489
 20
20.4203194038266638
 30
0.0
 10
161.2651740734148689
 20
17.908406403826671
 30
0.0
 10
159.8684000734148754
 20
15.6223814038266759
 30
0.0
  0
SPLINE
  5
8D
  8
Engrave
 62
256
370
-1
  6
ByLayer
100
AcDbEntity
100
AcDbSpline
 70
8
 71
3
 72
8
 73
4
 74
0
 40
0.0
 40
0.0
 40
0.0
 40
0.0
 40
1.0
 40
1.0
 40
1.0
 40
1.0
 10
159.8684000734148754
 20
15.6223814038266759
 30
0.0
 10
158.8838390734148334
 20
14.0109824038266702
 30
0.0
 10
156.8424690734148612
 20
11.942810403826666
 30
0.0
 10
155.4011600734148715
 20
11.0964534038266542
 30
0.0
  0
SPLINE
  5
8E
  8
Engrave
 62
256
370
-1
  6
ByLayer
100
AcDbEntity
100
AcDbSpline
 70
8
 71
3
 72
8
 73
4
 74
0
 40
0.0
 40
0.0
 40
0.0
 40
0.0
 40
1.0
 40
1.0
 40
1.0
 40
1.0
 10
155.4011600734148715
 20
11.0964534038266542
 30
0.0
 10
152.7799650734148713
 20
9.5572564038266812
 30
0.0
 10
149.1389320734148782
 20
8.9242884038266759
 30
0.0
 10
145.7146160734148452
 20
9.4125074038266625
 30
0.0
  0
LWPOLYLINE
  5
8F
  8
Engrave
 62
256
370
-1
  6
ByLayer
100
AcDbEntity
100
AcDbPolyline
 90
6
 70
0
 10
95.6801920734148297
 20
21.6658174038266615
 10
95.6801920734148297
 20
10.1487484038266693
 10
92.8581280734148464
 20
10.1487484038266693
 10
90.0360640734148348
 20
10.1487484038266693
 10
90.0360640734148348
 20
24.7929694038266568
 10
90.0360640734148348
 20
24.7929694038266568
  0
SPLINE
  5
90
  8
Engrave
 62
256
370
-1
  6
ByLayer
100
AcDbEntity
100
AcDbSpline
 70
8
 71
3
 72
8
 73
4
 74
0
 40
0.0
 40
0.0
 40
0.0
 40
0.0
 40
1.0
 40
1.0
 40
1.0
 40
1.0
 10
149.4519440734148361
 20
14.1220964038266565
 30
0.0
 10
154.2457990734148439
 20
14.8121404038266569
 30
0.0
 10
157.1988600734148349
 20
20.0360964038266722
 30
0.0
 10
156.3990140734148326
 20
26.4114234038266709
 30
0.0
  0
SPLINE
  5
91
  8
Engrave
 62
256
370
-1
  6
ByLayer
100
AcDbEntity
100
AcDbSpline
 70
8
 71
3
 72
8
 73
4
 74
0
 40
0.0
 40
0.0
 40
0.0
 40
0.0
 40
1.0
 40
1.0
 40
1.0
 40
1.0
 10
156.3990140734148326
 20
26.4114234038266709
 30
0.0
 10
156.0444860734148733
 20
29.2373034038266546
 30
0.0
 10
155.1769630734148677
 20
31.2331564038266656
 30
0.0
 10
153.5998210734148302
 20
32.8513394038266853
 30
0.0
  0
SPLINE
  5
92
  8
Engrave
 62
256
370
-1
  6
ByLayer
100
AcDbEntity
100
AcDbSpline
 70
8
 71
3
 72
8
 73
4
 74
0
 40
0.0
 40
0.0
 40
0.0
 40
0.0
 40
1.0
 40
1.0
 40
1.0
 40
1.0
 10
153.5998210734148302
 20
32.8513394038266853
 30
0.0
 10
152.0844570734148533
 20
34.4061494038266531
 30
0.0
 10
150.5559410734148287
 20
35.013415403826663
 30
0.0
 10
148.1577970734148835
 20
35.013415403826663
 30
0.0
  0
SPLINE
  5
93
  8
Engrave
 62
256
370
-1
  6
ByLayer
100
AcDbEntity
100
AcDbSpline
 70
8
 71
3
 72
8
 73
4
 74
0
 40
0.0
 40
0.0
 40
0.0
 40
0.0
 40
1.0
 40
1.0
 40
1.0
 40
1.0
 10
148.1577970734148835
 20
35.013415403826663
 30
0.0
 10
145.7871450734148766
 20
35.013415403826663
 30
0.0
 10
144.2051680734148817
 20
34.3929354038266766
 30
0.0
 10
142.6781030734148317
 20
32.8641774038266732
 30
0.0
  0
SPLINE
  5
94
  8
Engrave
 62
256
370
-1
  6
ByLayer
100
AcDbEntity
100
AcDbSpline
 70
8
 71
3
 72
8
 73
4
 74
0
 40
0.0
 40
0.0
 40
0.0
 40
0.0
 40
1.0
 40
1.0
 40
1.0
 40
1.0
 10
142.6781030734148317
 20
32.8641774038266732
 30
0.0
 10
141.4445490734148621
 20
31.629255403826658
 30
0.0
 10
140.5022510734148682
 20
29.802848403826669
 30
0.0
 10
140.0486160734148484
 20
27.7675774038266745
 30
0.0
  0
SPLINE
  5
95
  8
Engrave
 62
256
370
-1
  6
ByLayer
100
AcDbEntity
100
AcDbSpline
 70
8
 71
3
 72
8
 73
4
 74
0
 40
0.0
 40
0.0
 40
0.0
 40
0.0
 40
1.0
 40
1.0
 40
1.0
 40
1.0
 10
140.0486160734148484
 20
27.7675774038266745
 30
0.0
 10
139.713488073414851
 20
26.2640074038266782
 30
0.0
 10
139.8001160734148698
 20
22.2474634038266679
 30
0.0
 10
140.1999550734148556
 20
20.7505534038266823
 30
0.0
  0
SPLINE
  5
96
  8
Engrave
 62
256
370
-1
  6
ByLayer
100
AcDbEntity
100
AcDbSpline
 70
8
 71
3
 72
8
 73
4
 74
0
 40
0.0
 40
0.0
 40
0.0
 40
0.0
 40
1.0
 40
1.0
 40
1.0
 40
1.0
 10
140.1999550734148556
 20
20.7505534038266823
 30
0.0
 10
141.2036190734148704
 20
16.9930524038266633
 30
0.0
 10
143.602076073414878
 20
14.5850084038266736
 30
0.0
 10
146.8049420734148498
 20
14.119163403826672
 30
0.0
  0
SPLINE
  5
97
  8
Engrave
 62
256
370
-1
  6
ByLayer
100
AcDbEntity
100
AcDbSpline
 70
8
 71
3
 72
8
 73
4
 74
0
 40
0.0
 40
0.0
 40
0.0
 40
0.0
 40
1.0
 40
1.0
 40
1.0
 40
1.0
 10
146.8049420734148498
 20
14.119163403826672
 30
0.0
 10
147.9708700734148579
 20
13.9495824038266782
 30
0.0
 10
148.2556610734148421
 20
13.9498984038266762
 30
0.0
 10
149.4519440734148361
 20
14.1220994038266774
 30
0.0
  0
LWPOLYLINE
  5
98
  8
Engrave
 62
256
370
-1
  6
ByLayer
100
AcDbEntity
100
AcDbPolyline
 90
2
 70
0
 10
145.7146160734148452
 20
9.4125074038266625
 10
145.7146160734148452
 20
9.4125074038266625
  0
LWPOLYLINE
  5
99
  8
Engrave
 62
256
370
-1
  6
ByLayer
100
AcDbEntity
100
AcDbPolyline
 90
3
 70
0
 10
149.4519440734148361
 20
14.1220994038266774
 10
149.4519440734148361
 20
14.1221044038266648
 10
149.4519440734148361
 20
14.1220964038266565
  0
SPLINE
  5
9A
  8
Engrave
 62
256
370
-1
  6
ByLayer
100
AcDbEntity
100
AcDbSpline
 70
8
 71
3
 72
8
 73
4
 74
0
 40
0.0
 40
0.0
 40
0.0
 40
0.0
 40
1.0
 40
1.0
 40
1.0
 40
1.0
 10
177.5045510734148593
 20
29.1058294038266574
 30
0.0
 10
180.7851300734148481
 20
23.4655284038266636
 30
0.0
 10
183.5207380734148614
 20
18.8491664038266826
 30
0.0
 10
183.5836460734148545
 20
18.84724640382667
 30
0.0
  0
SPLINE
  5
9B
  8
Engrave
 62
256
370
-1
  6
ByLayer
100
AcDbEntity
100
AcDbSpline
 70
8
 71
3
 72
8
 73
4
 74
0
 40
0.0
 40
0.0
 40
0.0
 40
0.0
 40
1.0
 40
1.0
 40
1.0
 40
1.0
 10
183.5836460734148545
 20
18.84724640382667
 30
0.0
 10
183.6465810734148363
 20
18.8452714038266542
 30
0.0
 10
183.6980590734148677
 20
23.4772774038266725
 30
0.0
 10
183.6980590734148677
 20
29.1404724038266743
 30
0.0
  0
LWPOLYLINE
  5
9C
  8
Engrave
 62
256
370
-1
  6
ByLayer
100
AcDbEntity
100
AcDbPolyline
 90
5
 70
0
 10
165.6978690734148358
 20
24.7962624038266704
 10
165.6978690734148358
 20
39.4437794038266603
 10
168.6188690734148281
 20
39.4023494038266691
 10
171.5398690734148772
 20
39.3609194038266779
 10
177.5045510734148593
 20
29.1058294038266574
  0
LWPOLYLINE
  5
9D
  8
Engrave
 62
256
370
-1
  6
ByLayer
100
AcDbEntity
100
AcDbPolyline
 90
16
 70
0
 10
183.6980590734148677
 20
29.1404724038266743
 10
183.6980590734148677
 20
39.4371924038266641
 10
186.5201400734148365
 20
39.4371924038266641
 10
189.3421930734148759
 20
39.4371924038266641
 10
189.3421930734148759
 20
24.7929694038266568
 10
189.3421930734148759
 20
10.1487484038266693
 10
186.4599140734148364
 20
10.1487484038266693
 10
183.57760607341487
 20
10.1487484038266693
 10
177.4979470734148777
 20
20.6083244038266677
 10
171.4182880734148284
 20
31.0679034038266586
 10
171.3790870734148371
 20
20.6083244038266677
 10
171.3399140734148318
 20
10.1487484038266693
 10
168.5188780734148395
 20
10.1487484038266693
 10
165.6978690734148358
 20
10.1487484038266693
 10
165.6978690734148358
 20
24.7962624038266704
 10
165.6978690734148358
 20
24.7962624038266704
  0
INSERT
  5
9E
100
AcDbEntity
100
AcDbBlockReference
  8
LED
 62
256
370
-1
  6
ByLayer
  2
LED
 10
20.0
 20
50.0
 30
0.0
 44
1.0
 45
1.0
  0
INSERT
  5
9F
100
AcDbEntity
100
AcDbBlockReference
  8
LED
 62
256
370
-1
  6
ByLayer
  2
LED
 10
40.0
 20
50.0
 30
0.0
 44
1.0
 45
1.0
  0
INSERT
  5
A0
100
AcDbEntity
100
AcDbBlockReference
  8
LED
 62
256
370
-1
  6
ByLayer
  2
LED
 10
60.0
 20
50.0
 30
0.0
 44
1.0
 45
1.0
  0
INSERT
  5
A1
100
AcDbEntity
100
AcDbBlockReference
  8
LED
 62
256
370
-1
  6
ByLayer
  2
LED
 10
80.0
 20
50.0
 30
0.0
 44
1.0
 45
1.0
  0
INSERT
  5
A2
100
AcDbEntity
100
AcDbBlockReference
  8
LED
 62
256
370
-1
  6
ByLayer
  2
LED
 10
100.0
 20
50.0
 30
0.0
 44
1.0
 45
1.0
  0
INSERT
  5
A3
100
AcDbEntity
100
AcDbBlockReference
  8
LED
 62
256
370
-1
  6
ByLayer
  2
LED
 10
120.0
 20
50.0
 30
0.0
 44
1.0
 45
1.0
  0
INSERT
  5
A4
100
AcDbEntity
100
AcDbBlockReference
  8
LED
 62
256
370
-1
  6
ByLayer
  2
LED
 10
140.0
 20
50.0
 30
0.0
 44
1.0
 45
1.0
  0
INSERT
  5
A5
100
AcDbEntity
100
AcDbBlockReference
  8
LED
 62
256
370
-1
  6
ByLayer
  2
LED
 10
160.0
 20
50.0
 30
0.0
 44
1.0
 45
1.0
  0
INSERT
  5
A6
100
AcDbEntity
100
AcDbBlockReference
  8
LED
 62
256
370
-1
  6
ByLayer
  2
LED
 10
180.0
 20
50.0
 30
0.0
 44
1.0
 45
1.0
  0
INSERT
  5
A7
100
AcDbEntity
100
AcDbBlockReference
  8
LED
 62
256
370
-1
  6
ByLayer
  2
LED
 10
19.9999999999999929
 20
-0.0000000000000036
 30
0.0
 41
1.0
 42
-1.0
 43
1.0
 44
1.0
 45
1.0
  0
INSERT
  5
A8
100
AcDbEntity
100
AcDbBlockReference
  8
LED
 62
256
370
-1
  6
ByLayer
  2
LED
 10
40.0000000000000142
 20
0.0000000000000178
 30
0.0
 41
1.0
 42
-1.0
 43
1.0
 44
1.0
 45
1.0
  0
INSERT
  5
A9
100
AcDbEntity
100
AcDbBlockReference
  8
LED
 62
256
370
-1
  6
ByLayer
  2
LED
 10
59.9999999999999929
 20
-0.0000000000000142
 30
0.0
 41
1.0
 42
-1.0
 43
1.0
 44
1.0
 45
1.0
  0
INSERT
  5
AA
100
AcDbEntity
100
AcDbBlockReference
  8
LED
 62
256
370
-1
  6
ByLayer
  2
LED
 10
80.0
 20
-0.0000000000000178
 30
0.0
 41
1.0
 42
-1.0
 43
1.0
 44
1.0
 45
1.0
  0
INSERT
  5
AB
100
AcDbEntity
100
AcDbBlockReference
  8
LED
 62
256
370
-1
  6
ByLayer
  2
LED
 10
100.0
 20
-0.0000000000000071
 30
0.0
 41
1.0
 42
-1.0
 43
1.0
 44
1.0
 45
1.0
  0
INSERT
  5
AC
100
AcDbEntity
100
AcDbBlockReference
  8
LED
 62
256
370
-1
  6
ByLayer
  2
LED
 10
119.9999999999999858
 20
-0.0000000000000391
 30
0.0
 41
1.0
 42
-1.0
 43
1.0
 44
1.0
 45
1.0
  0
INSERT
  5
AD
100
AcDbEntity
100
AcDbBlockReference
  8
LED
 62
256
370
-1
  6
ByLayer
  2
LED
 10
140.0000000000000284
 20
-0.0000000000000178
 30
0.0
 41
1.0
 42
-1.0
 43
1.0
 44
1.0
 45
1.0
  0
INSERT
  5
AE
100
AcDbEntity
100
AcDbBlockReference
  8
LED
 62
256
370
-1
  6
ByLayer
  2
LED
 10
160.0000000000000284
 20
0.0000000000000533
 30
0.0
 41
1.0
 42
-1.0
 43
1.0
 44
1.0
 45
1.0
  0
INSERT
  5
AF
100
AcDbEntity
100
AcDbBlockReference
  8
LED
 62
256
370
-1
  6
ByLayer
  2
LED
 10
180.0
 20
0.0000000000000178
 30
0.0
 41
1.0
 42
-1.0
 43
1.0
 44
1.0
 45
1.0
  0
ENDSEC
  0
SECTION
  2
OBJECTS
  0
DICTIONARY
  5
C
100
AcDbDictionary
280
0
281
1
  3
ACAD_GROUP
350
D
  3
ACAD_LAYOUT
350
1A
  3
ACAD_MLINESTYLE
350
17
  3
ACAD_PLOTSETTINGS
350
19
  3
ACAD_PLOTSTYLENAME
350
E
  3
AcDbVariableDictionary
350
B0
  0
DICTIONARY
  5
D
100
AcDbDictionary
280
0
281
1
  0
ACDBDICTIONARYWDFLT
  5
E
100
AcDbDictionary
281
1
  3
Normal
350
F
100
AcDbDictionaryWithDefault
340
F
  0
ACDBPLACEHOLDER
  5
F
  0
DICTIONARY
  5
17
100
AcDbDictionary
280
0
281
1
  3
Standard
350
18
  0
MLINESTYLE
  5
18
100
AcDbMlineStyle
  2
STANDARD
 70
0
  3

 62
256
 51
90.0
 52
90.0
 71
2
 49
0.5
 62
256
  6
BYLAYER
 49
-0.5
 62
256
  6
BYLAYER
  0
DICTIONARY
  5
19
100
AcDbDictionary
280
0
281
1
  0
DICTIONARY
  5
1A
100
AcDbDictionary
281
1
  3
Layout1
350
1E
  3
Layout2
350
26
  3
Model
350
22
  0
LAYOUT
  5
1E
100
AcDbPlotSettings
  1

  2
C:\Program Files\AutoCAD 2002\plotters\DWF ePlot (optimized for plotting).pc3
  4

  6

 40
0.0
 41
0.0
 42
0.0
 43
0.0
 44
0.0
 45
0.0
 46
0.0
 47
0.0
 48
0.0
 49
0.0
140
0.0
141
0.0
142
1.0
143
1.0
 70
688
 72
0
 73
0
 74
5
  7

 75
16
147
1.0
148
0.0
149
0.0
100
AcDbLayout
  1
Layout1
 70
1
 71
1
 10
0.0
 20
0.0
 11
420.0
 21
297.0
 12
0.0
 22
0.0
 32
0.0
 14
100000000000000000000.0
 24
100000000000000000000.0
 34
100000000000000000000.0
 15
-100000000000000000000.0
 25
-100000000000000000000.0
 35
-100000000000000000000.0
146
0.0
 13
0.0
 23
0.0
 33
0.0
 16
1.0
 26
0.0
 36
0.0
 17
0.0
 27
1.0
 37
0.0
 76
0
330
1B
  0
LAYOUT
  5
22
100
AcDbPlotSettings
  1

  2
C:\Program Files\AutoCAD 2002\plotters\DWF ePlot (optimized for plotting).pc3
  4

  6

 40
0.0
 41
0.0
 42
0.0
 43
0.0
 44
0.0
 45
0.0
 46
0.0
 47
0.0
 48
0.0
 49
0.0
140
0.0
141
0.0
142
1.0
143
1.0
 70
1712
 72
0
 73
0
 74
0
  7

 75
0
147
1.0
148
0.0
149
0.0
100
AcDbLayout
  1
Model
 70
1
 71
0
 10
0.0
 20
0.0
 11
12.0
 21
9.0
 12
0.0
 22
0.0
 32
0.0
 14
0.0
 24
0.0
 34
0.0
 15
0.0
 25
0.0
 35
0.0
146
0.0
 13
0.0
 23
0.0
 33
0.0
 16
1.0
 26
0.0
 36
0.0
 17
0.0
 27
1.0
 37
0.0
 76
0
330
1F
  0
LAYOUT
  5
26
100
AcDbPlotSettings
  1

  2
C:\Program Files\AutoCAD 2002\plotters\DWF ePlot (optimized for plotting).pc3
  4

  6

 40
0.0
 41
0.0
 42
0.0
 43
0.0
 44
0.0
 45
0.0
 46
0.0
 47
0.0
 48
0.0
 49
0.0
140
0.0
141
0.0
142
1.0
143
1.0
 70
688
 72
0
 73
0
 74
5
  7

 75
16
147
1.0
148
0.0
149
0.0
100
AcDbLayout
  1
Layout2
 70
1
 71
2
 10
0.0
 20
0.0
 11
12.0
 21
9.0
 12
0.0
 22
0.0
 32
0.0
 14
0.0
 24
0.0
 34
0.0
 15
0.0
 25
0.0
 35
0.0
146
0.0
 13
0.0
 23
0.0
 33
0.0
 16
1.0
 26
0.0
 36
0.0
 17
0.0
 27
1.0
 37
0.0
 76
0
330
23
  0
DICTIONARY
  5
B0
100
AcDbDictionary
281
1
  3
DIMASSOC
350
B2
  3
HIDETEXT
350
B1
  0
DICTIONARYVAR
  5
B1
100
DictionaryVariables
280
0
  1
2
  0
DICTIONARYVAR
  5
B2
100
DictionaryVariables
280
0
  1
1
  0
ENDSEC
  0
EOF
